<?xml version="1.0" encoding="utf-8"?>
<!-- Generator: Adobe Illustrator 19.2.1, SVG Export Plug-In . SVG Version: 6.00 Build 0)  -->
<svg version="1.1" id="Слой_1" xmlns="http://www.w3.org/2000/svg" xmlns:xlink="http://www.w3.org/1999/xlink" x="0px" y="0px"
	 viewBox="0 0 277.5 72" style="enable-background:new 0 0 277.5 72;" xml:space="preserve">
<style type="text/css">
	.st0{fill:#9CBF2D;}
	.st1{fill:#ffffff;}
</style>
<g>
	<g>
		<path class="st0" d="M2.2,65.8c-0.6,0-1.1-0.2-1.5-0.6c-0.4-0.4-0.7-1-0.7-1.6c0-0.3,0-32.7,0-33.4c0.1-13,10.8-23.5,23.7-23.5
			l0.2,0c6.3,0,12.2,2.6,16.7,7.1c4.5,4.5,6.9,10.5,6.9,16.8c-0.1,12.8-11,23.6-23.7,23.6l-0.2,0c-2,0-5.6-0.7-7.5-1.1L3.7,65.2
			C3.3,65.6,2.8,65.8,2.2,65.8z M23.7,9.8C12.5,9.8,3.2,19,3.1,30.3c0,0.5,0,22.3,0,31.3l11.2-11c0.5-0.5,1.3-0.7,2-0.6
			c2.5,0.6,5.8,1.2,7.3,1.2l0.2,0c11.1,0,20.6-9.4,20.7-20.6c0-5.4-2.1-10.6-6-14.6c-3.9-4-9.1-6.2-14.6-6.2L23.7,9.8z"/>
		<path class="st0" d="M28.7,21.4C28,21,27,21.2,26.6,22c-0.4,0.7-0.1,1.7,0.6,2.1c2.4,1.3,3.8,3.8,3.8,6.4c0,4-3.3,7.3-7.3,7.3
			c-4,0-7.3-3.3-7.3-7.3c0-2.5,1.3-4.8,3.4-6.2c0.7-0.5,0.9-1.4,0.5-2.1c-0.5-0.7-1.4-0.9-2.1-0.5c-3,1.9-4.8,5.2-4.8,8.8
			C13.3,36.3,18,41,23.7,41c5.7,0,10.4-4.7,10.4-10.4C34.1,26.7,32.1,23.2,28.7,21.4z"/>
		<path class="st0" d="M23.7,29.8c0.9,0,1.5-0.7,1.5-1.5v-7.9c0-0.9-0.7-1.5-1.5-1.5c-0.9,0-1.5,0.7-1.5,1.5v7.9
			C22.2,29.1,22.9,29.8,23.7,29.8z"/>
	</g>
	<g>
		<path class="st1" d="M68.6,19.5l-7.3,0c-1,0-1.5,0.5-1.5,1.4v23.8c0,0.9,0.4,1.3,1.3,1.3c0.9,0,1.3-0.4,1.3-1.3v-9.3l6.5,0
			c5.1,0,7.8-4.3,7.8-8.1C76.8,23.1,73.5,19.5,68.6,19.5z M69,32.8h-6.5V22.1l6.4,0c3.4,0,5.2,2.7,5.2,5.3
			C74.1,29.7,72.3,32.8,69,32.8z"/>
		<path class="st1" d="M81.3,20.7c0-0.9,0.4-1.3,1.3-1.3c0.9,0,1.3,0.4,1.3,1.3v22.7h11.5c0.9,0,1.3,0.4,1.3,1.3
			c0,0.9-0.4,1.3-1.3,1.3H83.1c-1.2,0-1.8-0.7-1.8-2V20.7z"/>
		<path class="st1" d="M143,41.1c0.9,0,1.3,0.6,1.3,1.3c0,0.5-0.1,1-0.5,1.3c-2.2,1.9-5.5,3-8.4,3c-8.2,0-12.2-6.9-12.2-13.8
			c0-7,4.2-14.1,12.5-14.1c2.8,0,6.2,0.9,8.3,2.9c0.5,0.4,0.7,0.8,0.7,1.3c0,0.9-0.6,1.4-1.3,1.4c-0.4,0-0.9-0.2-1.1-0.4
			c-1.5-1.5-4.5-2.3-6.7-2.3c-6.3,0-9.4,5.5-9.4,11c0,5.6,3.2,11.3,9.5,11.3c2.3,0,5.1-0.9,6.6-2.5C142.4,41.2,142.7,41.1,143,41.1z
			"/>
		<path class="st1" d="M149,21.1c0-1.1,0.5-1.6,1.5-1.6h13.2c0.9,0,1.3,0.4,1.3,1.3c0,0.9-0.4,1.3-1.3,1.3h-12.1v8.8H162
			c0.9,0,1.3,0.5,1.3,1.4c0,0.8-0.4,1.3-1.3,1.3h-10.3v9.9H164c1,0,1.5,0.4,1.5,1.3c0,0.9-0.5,1.3-1.5,1.3h-13.5
			c-1.3,0-1.5-0.3-1.5-1.6V21.1z"/>
		<path class="st1" d="M178.4,21.8c-2.4,0-4.6,1.9-4.6,4.5c0,2.3,3.1,3.6,6.2,5.3c3.3,1.8,7.7,2.8,7.7,8c0,5.5-4.8,7.1-9.9,7.1
			c-2.3,0-4.4-0.6-6.3-1.8c-0.7-0.4-1-1-1-1.6c0-0.8,0.4-1.2,1.2-1.2c0.4,0,0.8,0.1,1.3,0.4c1.4,0.9,3.2,1.4,4.9,1.4
			c3.2,0,6.8-0.4,6.8-4.1c0-3.6-3.6-4.2-6.4-5.7c-3.6-1.8-7.6-3.8-7.6-7.6c0-4.7,3.6-7.4,8.2-7.4c3.3,0,6,1.7,7,2.4
			c0.6,0.5,1,1,1,1.7c0,0.7-0.5,1.4-1.3,1.4c-0.4,0-0.9-0.3-1.4-0.6C183.1,22.9,181.1,21.8,178.4,21.8z"/>
		<path class="st1" d="M200.2,22.2h-7.6c-1,0-1.4-0.4-1.4-1.3c0-0.9,0.5-1.3,1.4-1.3h17.8c0.9,0,1.4,0.4,1.4,1.3
			c0,0.9-0.5,1.3-1.4,1.3h-7.6v22.5c0,1-0.4,1.5-1.3,1.5c-0.9,0-1.4-0.5-1.4-1.5V22.2z"/>
		<path class="st1" d="M232.2,44.2l-8.4-23c-0.4-1.1-1.1-1.6-2.1-1.6c-1,0-1.7,0.5-2.1,1.6l-8.1,23c-0.1,0.2-0.1,0.5-0.1,0.7
			c0,0.6,0.3,1.3,1.1,1.3c0.8,0,1.3-0.5,1.6-1.4l2.2-6.3H227l2.8,6.8c0.2,0.6,0.6,0.9,1.3,0.9c0.8,0,1.2-0.5,1.2-1.2
			C232.3,44.8,232.3,44.5,232.2,44.2z M217.1,35.9l4.6-12.6l4.5,12.6H217.1z"/>
		<path class="st1" d="M247.9,35c3.7-1,5.5-4.6,5.5-7.5c0-3.7-2.8-7.8-8.2-7.8h-6.7c-1.4,0-2,0.5-2,2.4l0,22.5
			c0,1.1,0.4,1.6,1.3,1.6c0.9,0,1.3-0.5,1.3-1.6l0-9h6l5.8,10c0.3,0.6,0.8,0.7,1.2,0.7c0.8,0,1.1-0.5,1.1-1.2c0-0.4-0.1-0.8-0.3-1.3
			L247.9,35z M239.1,32.9l0-10.7h6.4c3.4,0,5.2,2.9,5.2,5.3c0,2.4-1.7,5.4-5.2,5.4H239.1z"/>
		<path class="st1" d="M265.4,22.2h-7.6c-1,0-1.4-0.4-1.4-1.3c0-0.9,0.5-1.3,1.4-1.3h17.8c0.9,0,1.4,0.4,1.4,1.3
			c0,0.9-0.5,1.3-1.4,1.3H268v22.5c0,1-0.4,1.5-1.3,1.5c-0.9,0-1.4-0.5-1.4-1.5V22.2z"/>
		<path class="st1" d="M120.7,44.1l-8.4-23c-0.4-1.1-1.1-1.6-2.1-1.6c-1,0-1.7,0.5-2.1,1.6l-8.1,23c-0.1,0.2-0.1,0.5-0.1,0.7
			c0,0.6,0.3,1.3,1.1,1.3c0.8,0,1.3-0.5,1.6-1.4l2.2-6.3h10.6l2.8,6.8c0.2,0.6,0.6,0.9,1.3,0.9c0.8,0,1.2-0.5,1.2-1.2
			C120.8,44.7,120.8,44.4,120.7,44.1z M105.6,35.8l4.6-12.6l4.5,12.6H105.6z"/>
	</g>
	<g>
		<path class="st1" d="M60.5,65v-9.7h0.7V65H60.5z"/>
		<path class="st1" d="M63.7,55.8v-0.6h7.6v0.6h-3.4V65h-0.7v-9.1H63.7z"/>
		<path class="st1" d="M72.4,61.2v-0.6h3.2v0.6H72.4z"/>
		<path class="st1" d="M76.7,64.9v-0.4H77c0.2,0,0.3,0,0.5-0.1c0.2-0.1,0.3-0.2,0.5-0.4c0.2-0.2,0.3-0.4,0.5-0.7
			c0.2-0.3,0.3-0.7,0.4-1.2c0.1-0.5,0.2-1,0.3-1.7c0.1-0.7,0.2-1.4,0.2-2.4h4V65h-0.7v-6.3H80c0,0.9-0.1,1.7-0.2,2.4
			c-0.1,0.7-0.2,1.2-0.4,1.7c-0.1,0.5-0.3,0.9-0.5,1.2c-0.2,0.3-0.4,0.5-0.6,0.7c-0.2,0.2-0.4,0.3-0.6,0.4S77.3,65,77.1,65
			c-0.1,0-0.2,0-0.3,0S76.7,65,76.7,64.9z"/>
		<path class="st1" d="M86,63.3c0-0.3,0.1-0.6,0.2-0.8c0.2-0.2,0.4-0.5,0.8-0.6c0.4-0.2,0.8-0.3,1.4-0.4c0.6-0.1,1.2-0.2,2-0.2v-0.7
			c0-0.6-0.1-1.1-0.4-1.5s-0.7-0.5-1.2-0.5c-0.3,0-0.6,0-0.8,0.1c-0.2,0.1-0.4,0.2-0.6,0.3c-0.2,0.1-0.3,0.2-0.4,0.3
			s-0.2,0.1-0.3,0.1c0,0-0.1,0-0.1,0c0,0-0.1-0.1-0.1-0.1l-0.1-0.2c0.4-0.4,0.7-0.6,1.1-0.8c0.4-0.2,0.8-0.3,1.3-0.3
			c0.4,0,0.7,0.1,1,0.2c0.3,0.1,0.5,0.3,0.7,0.5c0.2,0.2,0.3,0.5,0.4,0.8s0.1,0.7,0.1,1V65h-0.3c-0.1,0-0.2-0.1-0.3-0.2l-0.1-0.9
			c-0.2,0.2-0.4,0.3-0.6,0.5c-0.2,0.1-0.4,0.3-0.6,0.4c-0.2,0.1-0.4,0.2-0.7,0.2c-0.2,0.1-0.5,0.1-0.8,0.1c-0.2,0-0.5,0-0.7-0.1
			c-0.2-0.1-0.4-0.2-0.6-0.3c-0.2-0.1-0.3-0.3-0.4-0.5C86.1,63.9,86,63.6,86,63.3z M86.6,63.3c0,0.2,0,0.4,0.1,0.6
			c0.1,0.2,0.2,0.3,0.3,0.4c0.1,0.1,0.3,0.2,0.4,0.2c0.2,0.1,0.3,0.1,0.5,0.1c0.3,0,0.5,0,0.7-0.1c0.2-0.1,0.4-0.1,0.6-0.2
			s0.4-0.2,0.5-0.4c0.2-0.1,0.3-0.3,0.5-0.5v-1.8c-0.7,0-1.2,0.1-1.7,0.1c-0.5,0.1-0.9,0.2-1.2,0.3c-0.3,0.1-0.5,0.3-0.7,0.5
			C86.7,62.8,86.6,63,86.6,63.3z"/>
		<path class="st1" d="M93.8,60.6c0-0.8,0.1-1.4,0.2-2c0.1-0.6,0.3-1.1,0.6-1.6s0.7-0.8,1.1-1.1s1-0.4,1.6-0.5l2.5-0.3l0,0.3
			c0,0.1,0,0.1,0,0.2c0,0.1-0.1,0.1-0.2,0.1L97.4,56c-0.5,0-1,0.2-1.3,0.4c-0.4,0.2-0.7,0.5-0.9,0.8c-0.2,0.3-0.4,0.8-0.6,1.3
			c-0.1,0.5-0.2,1.1-0.2,1.7c0.1-0.3,0.2-0.5,0.4-0.8c0.2-0.2,0.4-0.4,0.6-0.6c0.2-0.2,0.5-0.3,0.8-0.4c0.3-0.1,0.6-0.1,0.9-0.1
			c0.5,0,0.9,0.1,1.2,0.2c0.4,0.2,0.7,0.4,0.9,0.7c0.2,0.3,0.4,0.6,0.6,1.1c0.1,0.4,0.2,0.9,0.2,1.4c0,0.5-0.1,1-0.2,1.4
			c-0.1,0.4-0.4,0.8-0.6,1.1c-0.3,0.3-0.6,0.5-1,0.7c-0.4,0.2-0.8,0.2-1.3,0.2c-0.4,0-0.8-0.1-1.2-0.2c-0.4-0.1-0.7-0.4-1-0.7
			c-0.3-0.3-0.5-0.8-0.7-1.4C93.9,62.2,93.8,61.4,93.8,60.6z M94.5,61.4c0,0.5,0.1,0.9,0.2,1.3c0.1,0.4,0.3,0.7,0.5,1
			c0.2,0.3,0.5,0.5,0.8,0.6c0.3,0.1,0.6,0.2,1,0.2c0.4,0,0.8-0.1,1.1-0.2c0.3-0.1,0.6-0.3,0.8-0.6c0.2-0.2,0.4-0.5,0.5-0.9
			c0.1-0.4,0.2-0.7,0.2-1.2c0-0.4-0.1-0.8-0.2-1.2c-0.1-0.4-0.3-0.7-0.5-0.9c-0.2-0.3-0.5-0.4-0.7-0.6c-0.3-0.1-0.6-0.2-1-0.2
			c-0.4,0-0.7,0.1-1,0.2s-0.6,0.3-0.8,0.5c-0.2,0.2-0.4,0.5-0.5,0.8C94.6,60.7,94.5,61,94.5,61.4z"/>
		<path class="st1" d="M102.4,61.5c0-0.5,0.1-1,0.2-1.5c0.1-0.4,0.3-0.8,0.6-1.1c0.3-0.3,0.6-0.5,1-0.7c0.4-0.2,0.8-0.2,1.3-0.2
			c0.5,0,0.9,0.1,1.3,0.2c0.4,0.2,0.7,0.4,1,0.7c0.3,0.3,0.5,0.7,0.6,1.1c0.1,0.4,0.2,0.9,0.2,1.5c0,0.5-0.1,1-0.2,1.5
			c-0.1,0.4-0.3,0.8-0.6,1.1c-0.3,0.3-0.6,0.5-1,0.7c-0.4,0.2-0.8,0.2-1.3,0.2c-0.5,0-0.9-0.1-1.3-0.2c-0.4-0.2-0.7-0.4-1-0.7
			c-0.3-0.3-0.5-0.7-0.6-1.1C102.4,62.6,102.4,62.1,102.4,61.5z M103,61.5c0,0.5,0.1,0.9,0.2,1.2c0.1,0.4,0.3,0.7,0.5,0.9
			c0.2,0.3,0.5,0.5,0.8,0.6c0.3,0.1,0.7,0.2,1.1,0.2c0.4,0,0.8-0.1,1.1-0.2c0.3-0.1,0.6-0.3,0.8-0.6c0.2-0.3,0.4-0.6,0.5-0.9
			c0.1-0.4,0.2-0.8,0.2-1.2c0-0.5-0.1-0.9-0.2-1.2c-0.1-0.4-0.3-0.7-0.5-1c-0.2-0.3-0.5-0.5-0.8-0.6c-0.3-0.1-0.7-0.2-1.1-0.2
			c-0.4,0-0.8,0.1-1.1,0.2c-0.3,0.1-0.6,0.3-0.8,0.6c-0.2,0.3-0.4,0.6-0.5,1C103.1,60.7,103,61.1,103,61.5z"/>
		<path class="st1" d="M111.3,67.4v-9.3h0.4c0.1,0,0.2,0.1,0.2,0.2l0.1,1c0.3-0.4,0.7-0.7,1.1-1s0.9-0.4,1.4-0.4
			c0.8,0,1.5,0.3,2,0.9c0.5,0.6,0.7,1.4,0.7,2.6c0,0.5-0.1,1-0.2,1.4c-0.1,0.4-0.3,0.8-0.6,1.1c-0.3,0.3-0.6,0.6-0.9,0.8
			s-0.8,0.3-1.3,0.3c-0.5,0-0.9-0.1-1.2-0.3c-0.3-0.2-0.6-0.4-0.9-0.8v3.3H111.3z M111.9,63.5c0.3,0.4,0.5,0.7,0.9,0.8
			c0.3,0.2,0.7,0.2,1.1,0.2c0.4,0,0.8-0.1,1.1-0.2c0.3-0.1,0.6-0.4,0.8-0.6c0.2-0.3,0.4-0.6,0.5-1c0.1-0.4,0.2-0.8,0.2-1.2
			c0-1-0.2-1.8-0.6-2.2c-0.4-0.5-0.9-0.7-1.6-0.7c-0.5,0-0.9,0.1-1.2,0.3c-0.4,0.2-0.7,0.6-1,1V63.5z"/>
		<path class="st1" d="M119.1,63.3c0-0.3,0.1-0.6,0.2-0.8c0.2-0.2,0.4-0.5,0.8-0.6c0.4-0.2,0.8-0.3,1.4-0.4c0.6-0.1,1.2-0.2,2-0.2
			v-0.7c0-0.6-0.1-1.1-0.4-1.5c-0.3-0.3-0.7-0.5-1.2-0.5c-0.3,0-0.6,0-0.8,0.1c-0.2,0.1-0.4,0.2-0.6,0.3c-0.2,0.1-0.3,0.2-0.4,0.3
			s-0.2,0.1-0.3,0.1c0,0-0.1,0-0.1,0c0,0-0.1-0.1-0.1-0.1l-0.1-0.2c0.4-0.4,0.7-0.6,1.1-0.8c0.4-0.2,0.8-0.3,1.3-0.3
			c0.4,0,0.7,0.1,1,0.2c0.3,0.1,0.5,0.3,0.7,0.5c0.2,0.2,0.3,0.5,0.4,0.8s0.1,0.7,0.1,1V65h-0.3c-0.1,0-0.2-0.1-0.3-0.2l-0.1-0.9
			c-0.2,0.2-0.4,0.3-0.6,0.5s-0.4,0.3-0.6,0.4c-0.2,0.1-0.4,0.2-0.7,0.2c-0.2,0.1-0.5,0.1-0.8,0.1c-0.2,0-0.5,0-0.7-0.1
			c-0.2-0.1-0.4-0.2-0.6-0.3c-0.2-0.1-0.3-0.3-0.4-0.5C119.2,63.9,119.1,63.6,119.1,63.3z M119.8,63.3c0,0.2,0,0.4,0.1,0.6
			c0.1,0.2,0.2,0.3,0.3,0.4c0.1,0.1,0.3,0.2,0.4,0.2c0.2,0.1,0.3,0.1,0.5,0.1c0.3,0,0.5,0,0.7-0.1c0.2-0.1,0.4-0.1,0.6-0.2
			c0.2-0.1,0.4-0.2,0.5-0.4c0.2-0.1,0.3-0.3,0.5-0.5v-1.8c-0.7,0-1.2,0.1-1.7,0.1c-0.5,0.1-0.9,0.2-1.2,0.3
			c-0.3,0.1-0.5,0.3-0.7,0.5C119.8,62.8,119.8,63,119.8,63.3z"/>
		<path class="st1" d="M126,58.6v-0.5h6.4v0.5h-2.9V65h-0.7v-6.3H126z"/>
		<path class="st1" d="M133.8,61.5c0-0.5,0.1-1,0.2-1.5c0.1-0.4,0.3-0.8,0.6-1.1c0.3-0.3,0.6-0.5,1-0.7c0.4-0.2,0.8-0.2,1.3-0.2
			c0.5,0,0.9,0.1,1.3,0.2c0.4,0.2,0.7,0.4,1,0.7c0.3,0.3,0.5,0.7,0.6,1.1c0.1,0.4,0.2,0.9,0.2,1.5c0,0.5-0.1,1-0.2,1.5
			c-0.1,0.4-0.3,0.8-0.6,1.1c-0.3,0.3-0.6,0.5-1,0.7s-0.8,0.2-1.3,0.2c-0.5,0-0.9-0.1-1.3-0.2s-0.7-0.4-1-0.7
			c-0.3-0.3-0.5-0.7-0.6-1.1C133.8,62.6,133.8,62.1,133.8,61.5z M134.4,61.5c0,0.5,0.1,0.9,0.2,1.2c0.1,0.4,0.3,0.7,0.5,0.9
			c0.2,0.3,0.5,0.5,0.8,0.6c0.3,0.1,0.7,0.2,1.1,0.2c0.4,0,0.8-0.1,1.1-0.2c0.3-0.1,0.6-0.3,0.8-0.6c0.2-0.3,0.4-0.6,0.5-0.9
			c0.1-0.4,0.2-0.8,0.2-1.2c0-0.5-0.1-0.9-0.2-1.2c-0.1-0.4-0.3-0.7-0.5-1c-0.2-0.3-0.5-0.5-0.8-0.6c-0.3-0.1-0.7-0.2-1.1-0.2
			c-0.4,0-0.8,0.1-1.1,0.2c-0.3,0.1-0.6,0.3-0.8,0.6c-0.2,0.3-0.4,0.6-0.5,1C134.5,60.7,134.4,61.1,134.4,61.5z"/>
		<path class="st1" d="M142.7,67.4v-9.3h0.4c0.1,0,0.2,0.1,0.2,0.2l0.1,1c0.3-0.4,0.7-0.7,1.1-1s0.9-0.4,1.4-0.4
			c0.8,0,1.5,0.3,1.9,0.9c0.5,0.6,0.7,1.4,0.7,2.6c0,0.5-0.1,1-0.2,1.4c-0.1,0.4-0.3,0.8-0.6,1.1c-0.3,0.3-0.6,0.6-0.9,0.8
			c-0.4,0.2-0.8,0.3-1.3,0.3c-0.5,0-0.9-0.1-1.2-0.3c-0.3-0.2-0.6-0.4-0.9-0.8v3.3H142.7z M143.3,63.5c0.3,0.4,0.5,0.7,0.9,0.8
			c0.3,0.2,0.7,0.2,1.1,0.2c0.4,0,0.8-0.1,1.1-0.2c0.3-0.1,0.6-0.4,0.8-0.6c0.2-0.3,0.4-0.6,0.5-1c0.1-0.4,0.2-0.8,0.2-1.2
			c0-1-0.2-1.8-0.6-2.2c-0.4-0.5-0.9-0.7-1.6-0.7c-0.5,0-0.9,0.1-1.2,0.3c-0.4,0.2-0.7,0.6-1,1V63.5z"/>
		<path class="st1" d="M151.1,65v-6.8h0.7v5.5c0,0.1,0,0.1,0,0.2c0,0.1,0,0.1,0,0.2c0-0.1,0.1-0.1,0.1-0.2c0-0.1,0.1-0.1,0.1-0.1
			c0,0,0.1-0.1,0.2-0.3c0.1-0.2,0.3-0.4,0.5-0.6c0.2-0.3,0.4-0.6,0.7-0.9c0.2-0.3,0.5-0.7,0.7-1c0.6-0.8,1.3-1.7,2-2.7
			c0,0,0.1-0.1,0.1-0.1c0,0,0.1-0.1,0.1-0.1h0.4V65h-0.7v-5.5c0-0.1,0-0.3,0-0.4c0,0.1-0.1,0.1-0.1,0.2c0,0.1-0.1,0.1-0.1,0.1
			c0,0-0.1,0.1-0.2,0.3c-0.1,0.2-0.3,0.4-0.5,0.6c-0.2,0.3-0.4,0.5-0.7,0.9c-0.2,0.3-0.5,0.7-0.7,1c-0.6,0.8-1.3,1.7-2,2.7
			c0,0-0.1,0.1-0.1,0.1c0,0-0.1,0.1-0.1,0.1H151.1z"/>
		<path class="st1" d="M158.8,65l2.3-2.8c0.1-0.2,0.3-0.3,0.5-0.4c-0.4,0-0.7-0.1-1-0.2c-0.3-0.1-0.5-0.2-0.6-0.4
			c-0.2-0.2-0.3-0.3-0.4-0.5c-0.1-0.2-0.1-0.4-0.1-0.6c0-0.2,0-0.4,0.1-0.7c0.1-0.2,0.2-0.4,0.4-0.6c0.2-0.2,0.4-0.3,0.7-0.4
			c0.3-0.1,0.7-0.2,1.1-0.2h2.1V65h-0.7v-3.1h-0.9c-0.1,0-0.2,0-0.3,0c-0.1,0-0.1,0-0.2,0.1c-0.1,0-0.1,0.1-0.2,0.1
			c0,0-0.1,0.1-0.1,0.2l-2,2.5c0,0.1-0.1,0.1-0.2,0.2c-0.1,0-0.2,0.1-0.3,0.1H158.8z M160.2,60.1c0,0.2,0,0.4,0.1,0.6
			c0.1,0.2,0.2,0.3,0.4,0.4c0.2,0.1,0.4,0.2,0.6,0.3c0.2,0.1,0.5,0.1,0.8,0.1h1.2v-2.9h-1.5c-0.3,0-0.6,0-0.8,0.1
			c-0.2,0.1-0.4,0.2-0.5,0.3c-0.1,0.1-0.2,0.3-0.3,0.5C160.2,59.7,160.2,59.9,160.2,60.1z"/>
	</g>
</g>
</svg>
