<?xml version="1.0" encoding="UTF-8"?>
<svg width="32px" height="34px" viewBox="0 0 32 34" version="1.1" xmlns="http://www.w3.org/2000/svg" xmlns:xlink="http://www.w3.org/1999/xlink">
    <!-- Generator: Sketch 52 (66869) - http://www.bohemiancoding.com/sketch -->
    <title>Group 12</title>
    <desc>Created with Sketch.</desc>
    <g id="Website" stroke="none" stroke-width="1" fill="none" fill-rule="evenodd">
        <g id="komsis01_main-copy" transform="translate(-374.000000, -2364.000000)">
            <g id="Group-7" transform="translate(374.000000, 2361.000000)">
                <g id="Group-12" transform="translate(0.000000, 3.000000)">
                    <path d="M1.49174253,27.8646493 L17.4267931,20.2485873 C17.779802,20.0896024 18.0039124,19.7435848 17.9990736,19.3650089 L17.9990736,1.00194382 C18.0144806,0.655475682 17.8367985,0.327832148 17.5342137,0.144748528 C17.231629,-0.0383350926 16.8511438,-0.0484194548 16.5387717,0.11836538 L1.50160944,7.30224228 C0.591505036,7.71983474 0.00830362092,8.60868438 0.00183996961,9.5880213 L0.00183996961,26.9810709 C-0.0204428798,27.3363821 0.161004983,27.6745462 0.473316494,27.8597608 C0.785628004,28.0449754 1.17756953,28.0468567 1.49174253,27.8646493 Z" id="Path" fill="#FFE000"></path>
                    <path d="M12.5675824,33.8898731 L27.3086988,26.5537916 C27.6748003,26.3658171 27.9071164,25.9903868 27.9123641,25.5782488 L27.9999929,8.08676738 C28.0013447,7.71202104 27.8092147,7.36321332 27.4920437,7.16459686 C27.1748728,6.9659804 26.7777531,6.94579254 26.4421471,7.11122464 L12.3436421,14.0180673 C11.523178,14.4274465 11.0032794,15.2654278 11,16.1837722 L11,32.9143303 C11.0023793,33.289662 11.196874,33.6374974 11.5150986,33.835536 C11.8333233,34.0335746 12.2307277,34.0540916 12.5675824,33.8898731 Z" id="Path" fill="#055693"></path>
                    <path d="M24.5447525,33.8793589 L30.2648859,30.9643464 C31.3241087,30.4251838 31.9951906,29.3240603 31.9999931,28.1173508 L31.9999931,21.082454 C32.0013166,20.709195 31.813192,20.3617717 31.5026332,20.1639436 C31.1920745,19.9661154 30.8032337,19.9460077 30.4746241,20.1107832 L24.7544907,22.9674954 C23.6661512,23.5119678 22.9831432,24.6469615 23.0003164,25.8825079 L23.0003164,32.9368381 C23.0055497,33.3105225 23.2002106,33.6548139 23.5148056,33.8468014 C23.8294007,34.0387889 24.2190888,34.0511072 24.5447525,33.8793589 Z" id="Path" fill="#156DBC"></path>
                </g>
            </g>
        </g>
    </g>
</svg>