<?xml version="1.0" encoding="UTF-8"?>
<svg width="512px" height="513px" viewBox="0 0 512 513" version="1.1" xmlns="http://www.w3.org/2000/svg" xmlns:xlink="http://www.w3.org/1999/xlink">
    <!-- Generator: Sketch 46.2 (44496) - http://www.bohemiancoding.com/sketch -->
    <title>akcii copy</title>
    <desc>Created with Sketch.</desc>
    <defs></defs>
    <g id="Symbols" stroke="none" stroke-width="1" fill="none" fill-rule="evenodd">
        <g id="akcii-copy" fill-rule="nonzero" fill="#E6007E">
            <path d="M189.035,166.712 C176.727,166.712 166.713,176.726 166.713,189.034 C166.713,201.342 176.727,211.356 189.035,211.356 C201.343,211.356 211.357,201.341 211.357,189.034 C211.357,176.726 201.343,166.712 189.035,166.712 Z" id="Shape"></path>
            <path d="M322.967,300.644 C310.659,300.644 300.645,310.658 300.645,322.966 C300.645,335.274 310.659,345.288 322.967,345.288 C335.275,345.288 345.289,335.274 345.289,322.966 C345.289,310.658 335.274,300.644 322.967,300.644 Z" id="Shape"></path>
            <path d="M507.154,244.22 L463.707,200.345 L479.396,140.624 C481.729,131.743 476.473,122.64 467.616,120.221 L408.052,103.948 L391.779,44.384 C389.359,35.527 380.259,30.27 371.376,32.604 L311.656,48.294 L267.78,4.846 C261.255,-1.615 250.744,-1.615 244.22,4.846 L200.345,48.294 L140.624,32.605 C131.741,30.271 122.641,35.528 120.221,44.385 L103.948,103.949 L44.384,120.222 C35.527,122.642 30.271,131.745 32.604,140.625 L48.293,200.346 L4.846,244.22 C-1.615,250.745 -1.615,261.256 4.846,267.78 L48.294,311.655 L32.605,371.376 C30.272,380.257 35.528,389.36 44.385,391.779 L103.949,408.052 L120.222,467.616 C122.642,476.473 131.741,481.73 140.625,479.396 L200.346,463.707 L244.221,507.155 C247.483,510.386 251.742,512.001 256.001,512.001 C260.26,512.001 264.519,510.386 267.781,507.155 L311.656,463.707 L371.377,479.396 C380.259,481.727 389.36,476.473 391.78,467.616 L408.053,408.052 L467.617,391.779 C476.474,389.359 481.73,380.256 479.397,371.376 L463.708,311.655 L507.155,267.78 C513.615,261.256 513.615,250.745 507.154,244.22 Z M133.23,189.034 C133.23,158.263 158.264,133.229 189.035,133.229 C219.806,133.229 244.84,158.263 244.84,189.034 C244.84,219.805 219.806,244.839 189.035,244.839 C158.264,244.839 133.23,219.805 133.23,189.034 Z M189.711,345.964 C186.442,349.233 182.157,350.868 177.874,350.868 C173.59,350.868 169.305,349.234 166.037,345.964 C159.499,339.426 159.499,328.826 166.037,322.288 L322.29,166.035 C328.827,159.497 339.428,159.497 345.966,166.035 C352.504,172.573 352.504,183.173 345.966,189.711 L189.711,345.964 Z M322.967,378.771 C292.196,378.771 267.162,353.737 267.162,322.966 C267.162,292.195 292.196,267.161 322.967,267.161 C353.738,267.161 378.772,292.195 378.772,322.966 C378.772,353.737 353.738,378.771 322.967,378.771 Z" id="Shape"></path>
        </g>
    </g>
</svg>