<?xml version="1.0" encoding="UTF-8"?>
<svg width="270px" height="800px" viewBox="0 0 270 800" version="1.1" xmlns="http://www.w3.org/2000/svg" xmlns:xlink="http://www.w3.org/1999/xlink">
    <!-- Generator: Sketch 52 (66869) - http://www.bohemiancoding.com/sketch -->
    <title>Group 2</title>
    <desc>Created with Sketch.</desc>
    <g id="Page-1" stroke="none" stroke-width="1" fill="none" fill-rule="evenodd">
        <g id="Catalog-Copy" transform="translate(-375.000000, -262.000000)">
            <g id="Group-2" transform="translate(375.000000, 262.000000)">
                <path d="M0,3.99651189 C0,1.78929932 1.795548,0 3.99981191,0 L266.000188,0 C268.209223,0 270,1.79302504 270,3.99651189 L270,796.003488 C270,798.210701 268.204452,800 266.000188,800 L3.99981191,800 C1.79077679,800 0,798.206975 0,796.003488 L0,3.99651189 Z" id="base-copy-2" fill="#F0F0F0"></path>
                <rect id="BG-Copy-13" fill="#D1D1D1" x="27" y="23" width="216" height="18" rx="4"></rect>
                <path d="M27,68.9947834 C27,66.7885255 28.7917156,65 30.9947834,65 L41.0052166,65 C43.2114745,65 45,66.7917156 45,68.9947834 L45,79.0052166 C45,81.2114745 43.2082844,83 41.0052166,83 L30.9947834,83 C28.7885255,83 27,81.2082844 27,79.0052166 L27,68.9947834 Z" id="BG-Copy-14" fill="#FFFFFF"></path>
                <path d="M27,100.994783 C27,98.7885255 28.7917156,97 30.9947834,97 L41.0052166,97 C43.2114745,97 45,98.7917156 45,100.994783 L45,111.005217 C45,113.211475 43.2082844,115 41.0052166,115 L30.9947834,115 C28.7885255,115 27,113.208284 27,111.005217 L27,100.994783 Z" id="BG-Copy-16" fill="#FFFFFF"></path>
                <path d="M27,132.994783 C27,130.788525 28.7917156,129 30.9947834,129 L41.0052166,129 C43.2114745,129 45,130.791716 45,132.994783 L45,143.005217 C45,145.211475 43.2082844,147 41.0052166,147 L30.9947834,147 C28.7885255,147 27,145.208284 27,143.005217 L27,132.994783 Z" id="BG-Copy-18" fill="#FFFFFF"></path>
                <path d="M27,164.994783 C27,162.788525 28.7917156,161 30.9947834,161 L41.0052166,161 C43.2114745,161 45,162.791716 45,164.994783 L45,175.005217 C45,177.211475 43.2082844,179 41.0052166,179 L30.9947834,179 C28.7885255,179 27,177.208284 27,175.005217 L27,164.994783 Z" id="BG-Copy-20" fill="#FFFFFF"></path>
                <path d="M55,70.999615 C55,69.8952581 55.8887441,69 57.005276,69 L183.994724,69 C185.102207,69 186,69.8874333 186,70.999615 L186,77.000385 C186,78.1047419 185.111256,79 183.994724,79 L57.005276,79 C55.8977927,79 55,78.1125667 55,77.000385 L55,70.999615 Z" id="BG-Copy-15" fill="#D1D1D1"></path>
                <path d="M55,102.999615 C55,101.895258 55.8867659,101 56.9923184,101 L204.007682,101 C205.108009,101 206,101.887433 206,102.999615 L206,109.000385 C206,110.104742 205.113234,111 204.007682,111 L56.9923184,111 C55.8919913,111 55,110.112567 55,109.000385 L55,102.999615 Z" id="BG-Copy-17" fill="#D1D1D1"></path>
                <path d="M55,134.999615 C55,133.895258 55.8984375,133 56.9974983,133 L133.002502,133 C134.10569,133 135,133.887433 135,134.999615 L135,141.000385 C135,142.104742 134.101563,143 133.002502,143 L56.9974983,143 C55.8943104,143 55,142.112567 55,141.000385 L55,134.999615 Z" id="BG-Copy-19" fill="#D1D1D1"></path>
                <path d="M55,166.999615 C55,165.895258 55.8934882,165 56.9974782,165 L164.002522,165 C165.105699,165 166,165.887433 166,166.999615 L166,173.000385 C166,174.104742 165.106512,175 164.002522,175 L56.9974782,175 C55.8943015,175 55,174.112567 55,173.000385 L55,166.999615 Z" id="BG-Copy-21" fill="#D1D1D1"></path>
                <rect id="BG-Copy-13" fill="#D1D1D1" x="27" y="219" width="216" height="18" rx="4"></rect>
                <path d="M27,264.994783 C27,262.788525 28.7917156,261 30.9947834,261 L41.0052166,261 C43.2114745,261 45,262.791716 45,264.994783 L45,275.005217 C45,277.211475 43.2082844,279 41.0052166,279 L30.9947834,279 C28.7885255,279 27,277.208284 27,275.005217 L27,264.994783 Z" id="BG-Copy-14" fill="#FFFFFF"></path>
                <path d="M27,296.994783 C27,294.788525 28.7917156,293 30.9947834,293 L41.0052166,293 C43.2114745,293 45,294.791716 45,296.994783 L45,307.005217 C45,309.211475 43.2082844,311 41.0052166,311 L30.9947834,311 C28.7885255,311 27,309.208284 27,307.005217 L27,296.994783 Z" id="BG-Copy-16" fill="#FFFFFF"></path>
                <path d="M27,328.994783 C27,326.788525 28.7917156,325 30.9947834,325 L41.0052166,325 C43.2114745,325 45,326.791716 45,328.994783 L45,339.005217 C45,341.211475 43.2082844,343 41.0052166,343 L30.9947834,343 C28.7885255,343 27,341.208284 27,339.005217 L27,328.994783 Z" id="BG-Copy-18" fill="#FFFFFF"></path>
                <path d="M27,360.994783 C27,358.788525 28.7917156,357 30.9947834,357 L41.0052166,357 C43.2114745,357 45,358.791716 45,360.994783 L45,371.005217 C45,373.211475 43.2082844,375 41.0052166,375 L30.9947834,375 C28.7885255,375 27,373.208284 27,371.005217 L27,360.994783 Z" id="BG-Copy-20" fill="#FFFFFF"></path>
                <path d="M55,266.999615 C55,265.895258 55.8887441,265 57.005276,265 L183.994724,265 C185.102207,265 186,265.887433 186,266.999615 L186,273.000385 C186,274.104742 185.111256,275 183.994724,275 L57.005276,275 C55.8977927,275 55,274.112567 55,273.000385 L55,266.999615 Z" id="BG-Copy-15" fill="#D1D1D1"></path>
                <path d="M55,298.999615 C55,297.895258 55.8867659,297 56.9923184,297 L204.007682,297 C205.108009,297 206,297.887433 206,298.999615 L206,305.000385 C206,306.104742 205.113234,307 204.007682,307 L56.9923184,307 C55.8919913,307 55,306.112567 55,305.000385 L55,298.999615 Z" id="BG-Copy-17" fill="#D1D1D1"></path>
                <path d="M55,330.999615 C55,329.895258 55.8984375,329 56.9974983,329 L133.002502,329 C134.10569,329 135,329.887433 135,330.999615 L135,337.000385 C135,338.104742 134.101563,339 133.002502,339 L56.9974983,339 C55.8943104,339 55,338.112567 55,337.000385 L55,330.999615 Z" id="BG-Copy-19" fill="#D1D1D1"></path>
                <path d="M55,362.999615 C55,361.895258 55.8934882,361 56.9974782,361 L164.002522,361 C165.105699,361 166,361.887433 166,362.999615 L166,369.000385 C166,370.104742 165.106512,371 164.002522,371 L56.9974782,371 C55.8943015,371 55,370.112567 55,369.000385 L55,362.999615 Z" id="BG-Copy-21" fill="#D1D1D1"></path>
                <rect id="BG-Copy-13" fill="#D1D1D1" x="27" y="415" width="216" height="18" rx="4"></rect>
                <path d="M27,460.994783 C27,458.788525 28.7917156,457 30.9947834,457 L41.0052166,457 C43.2114745,457 45,458.791716 45,460.994783 L45,471.005217 C45,473.211475 43.2082844,475 41.0052166,475 L30.9947834,475 C28.7885255,475 27,473.208284 27,471.005217 L27,460.994783 Z" id="BG-Copy-14" fill="#FFFFFF"></path>
                <path d="M27,492.994783 C27,490.788525 28.7917156,489 30.9947834,489 L41.0052166,489 C43.2114745,489 45,490.791716 45,492.994783 L45,503.005217 C45,505.211475 43.2082844,507 41.0052166,507 L30.9947834,507 C28.7885255,507 27,505.208284 27,503.005217 L27,492.994783 Z" id="BG-Copy-16" fill="#FFFFFF"></path>
                <path d="M27,524.994783 C27,522.788525 28.7917156,521 30.9947834,521 L41.0052166,521 C43.2114745,521 45,522.791716 45,524.994783 L45,535.005217 C45,537.211475 43.2082844,539 41.0052166,539 L30.9947834,539 C28.7885255,539 27,537.208284 27,535.005217 L27,524.994783 Z" id="BG-Copy-18" fill="#FFFFFF"></path>
                <path d="M27,556.994783 C27,554.788525 28.7917156,553 30.9947834,553 L41.0052166,553 C43.2114745,553 45,554.791716 45,556.994783 L45,567.005217 C45,569.211475 43.2082844,571 41.0052166,571 L30.9947834,571 C28.7885255,571 27,569.208284 27,567.005217 L27,556.994783 Z" id="BG-Copy-20" fill="#FFFFFF"></path>
                <path d="M55,462.999615 C55,461.895258 55.8887441,461 57.005276,461 L183.994724,461 C185.102207,461 186,461.887433 186,462.999615 L186,469.000385 C186,470.104742 185.111256,471 183.994724,471 L57.005276,471 C55.8977927,471 55,470.112567 55,469.000385 L55,462.999615 Z" id="BG-Copy-15" fill="#D1D1D1"></path>
                <path d="M55,494.999615 C55,493.895258 55.8867659,493 56.9923184,493 L204.007682,493 C205.108009,493 206,493.887433 206,494.999615 L206,501.000385 C206,502.104742 205.113234,503 204.007682,503 L56.9923184,503 C55.8919913,503 55,502.112567 55,501.000385 L55,494.999615 Z" id="BG-Copy-17" fill="#D1D1D1"></path>
                <path d="M55,526.999615 C55,525.895258 55.8984375,525 56.9974983,525 L133.002502,525 C134.10569,525 135,525.887433 135,526.999615 L135,533.000385 C135,534.104742 134.101563,535 133.002502,535 L56.9974983,535 C55.8943104,535 55,534.112567 55,533.000385 L55,526.999615 Z" id="BG-Copy-19" fill="#D1D1D1"></path>
                <path d="M55,558.999615 C55,557.895258 55.8934882,557 56.9974782,557 L164.002522,557 C165.105699,557 166,557.887433 166,558.999615 L166,565.000385 C166,566.104742 165.106512,567 164.002522,567 L56.9974782,567 C55.8943015,567 55,566.112567 55,565.000385 L55,558.999615 Z" id="BG-Copy-21" fill="#D1D1D1"></path>
                <rect id="BG-Copy-13" fill="#D1D1D1" x="27" y="611" width="216" height="18" rx="4"></rect>
                <path d="M27,656.994783 C27,654.788525 28.7917156,653 30.9947834,653 L41.0052166,653 C43.2114745,653 45,654.791716 45,656.994783 L45,667.005217 C45,669.211475 43.2082844,671 41.0052166,671 L30.9947834,671 C28.7885255,671 27,669.208284 27,667.005217 L27,656.994783 Z" id="BG-Copy-14" fill="#FFFFFF"></path>
                <path d="M27,688.994783 C27,686.788525 28.7917156,685 30.9947834,685 L41.0052166,685 C43.2114745,685 45,686.791716 45,688.994783 L45,699.005217 C45,701.211475 43.2082844,703 41.0052166,703 L30.9947834,703 C28.7885255,703 27,701.208284 27,699.005217 L27,688.994783 Z" id="BG-Copy-16" fill="#FFFFFF"></path>
                <path d="M27,720.994783 C27,718.788525 28.7917156,717 30.9947834,717 L41.0052166,717 C43.2114745,717 45,718.791716 45,720.994783 L45,731.005217 C45,733.211475 43.2082844,735 41.0052166,735 L30.9947834,735 C28.7885255,735 27,733.208284 27,731.005217 L27,720.994783 Z" id="BG-Copy-18" fill="#FFFFFF"></path>
                <path d="M27,752.994783 C27,750.788525 28.7917156,749 30.9947834,749 L41.0052166,749 C43.2114745,749 45,750.791716 45,752.994783 L45,763.005217 C45,765.211475 43.2082844,767 41.0052166,767 L30.9947834,767 C28.7885255,767 27,765.208284 27,763.005217 L27,752.994783 Z" id="BG-Copy-20" fill="#FFFFFF"></path>
                <path d="M55,658.999615 C55,657.895258 55.8887441,657 57.005276,657 L183.994724,657 C185.102207,657 186,657.887433 186,658.999615 L186,665.000385 C186,666.104742 185.111256,667 183.994724,667 L57.005276,667 C55.8977927,667 55,666.112567 55,665.000385 L55,658.999615 Z" id="BG-Copy-15" fill="#D1D1D1"></path>
                <path d="M55,690.999615 C55,689.895258 55.8867659,689 56.9923184,689 L204.007682,689 C205.108009,689 206,689.887433 206,690.999615 L206,697.000385 C206,698.104742 205.113234,699 204.007682,699 L56.9923184,699 C55.8919913,699 55,698.112567 55,697.000385 L55,690.999615 Z" id="BG-Copy-17" fill="#D1D1D1"></path>
                <path d="M55,722.999615 C55,721.895258 55.8984375,721 56.9974983,721 L133.002502,721 C134.10569,721 135,721.887433 135,722.999615 L135,729.000385 C135,730.104742 134.101563,731 133.002502,731 L56.9974983,731 C55.8943104,731 55,730.112567 55,729.000385 L55,722.999615 Z" id="BG-Copy-19" fill="#D1D1D1"></path>
                <path d="M55,754.999615 C55,753.895258 55.8934882,753 56.9974782,753 L164.002522,753 C165.105699,753 166,753.887433 166,754.999615 L166,761.000385 C166,762.104742 165.106512,763 164.002522,763 L56.9974782,763 C55.8943015,763 55,762.112567 55,761.000385 L55,754.999615 Z" id="BG-Copy-21" fill="#D1D1D1"></path>
            </g>
        </g>
    </g>
</svg>