<?xml version="1.0" encoding="UTF-8"?>
<svg width="270px" height="74px" viewBox="0 0 270 74" version="1.1" xmlns="http://www.w3.org/2000/svg" xmlns:xlink="http://www.w3.org/1999/xlink">
    <!-- Generator: Sketch 52 (66869) - http://www.bohemiancoding.com/sketch -->
    <title>logo</title>
    <desc>Created with Sketch.</desc>
    <g id="Website" stroke="none" stroke-width="1" fill="none" fill-rule="evenodd">
        <g id="komsis01_main-copy" transform="translate(-375.000000, -41.000000)">
            <g id="Header">
                <g id="logo" transform="translate(375.000000, 41.000000)">
                    <g id="ks_main_a" transform="translate(0.000000, 0.378710)">
                        <g id="Group">
                            <path d="M38.0025561,65.2448155 L18.2044503,55.5685225 C17.7658632,55.3665304 17.4874229,54.9269111 17.4934347,54.4459261 L17.4934347,31.1154441 C17.4742926,30.6752524 17.6950494,30.2589776 18.0709882,30.0263678 C18.4469271,29.793758 18.9196514,29.7809457 19.3077503,29.9928477 L38.0025561,39.1200446 C39.114203,39.6645152 39.8179327,40.7909495 39.8168717,42.0241527 L39.8168717,64.1222191 C39.8360138,64.5624108 39.615257,64.9786856 39.2393181,65.2112955 C38.8633793,65.4439053 38.3906549,65.4567176 38.0025561,65.2448155 Z" id="Path" fill="#055693"></path>
                            <path d="M43.5313151,65.2448155 L63.3294209,55.5685225 C63.7680079,55.3665304 64.0464482,54.9269111 64.0404365,54.4459261 L64.0404365,31.1154441 C64.0595785,30.6752524 63.8388217,30.2589776 63.4628829,30.0263678 C63.086944,29.793758 62.6142197,29.7809457 62.2261209,29.9928477 L43.5435739,39.1200446 C42.4128374,39.6506006 41.6882534,40.7798941 41.6802228,42.0241527 L41.6802228,64.1222191 C41.652538,64.5736461 41.8779734,65.0032874 42.265997,65.2386046 C42.6540207,65.4739219 43.1409786,65.4763121 43.5313151,65.2448155 Z" id="Path" fill="#FFE000"></path>
                            <path d="M40.2336739,16.1922331 L20.4846036,25.8319197 C20.0083931,26.0117112 19.6934734,26.4658612 19.6934734,26.9728193 C19.6934734,27.4797774 20.0083931,27.9339274 20.4846036,28.1137189 L39.3510339,37.3385329 C40.2605369,37.7781207 41.3223698,37.7781207 42.2318728,37.3385329 L61.0983031,28.0649104 C61.5745136,27.8851188 61.8894333,27.4309689 61.8894333,26.9240108 C61.8894333,26.4170527 61.5745136,25.9629027 61.0983031,25.7831111 L41.3492328,16.1434245 C40.9910901,15.9803912 40.5760638,15.9985497 40.2336739,16.1922331 Z" id="Path" fill="#156DBC"></path>
                            <path d="M56.2192652,72.8223413 L74.7792233,63.6463359 C75.2401672,63.4112165 75.5326672,62.9416264 75.5392744,62.4261224 L75.6496044,40.5476944 C75.6513063,40.0789599 75.409403,39.6426696 75.0100656,39.3942392 C74.6107282,39.1458087 74.1107304,39.1205577 73.6881821,39.3274809 L55.9373108,47.9665925 C54.9042968,48.4786459 54.2497131,49.5267968 54.2455841,50.6754664 L54.2455841,71.6021279 C54.2485798,72.0715945 54.4934603,72.5066687 54.8941245,72.7543763 C55.2947886,73.0020839 55.7951447,73.0277466 56.2192652,72.8223413 Z" id="Path" fill="#055693"></path>
                            <path d="M25.2287937,72.8223413 L6.74238898,63.6463359 C6.27548885,63.4177018 5.98046065,62.9440529 5.98233786,62.4261224 L5.85974897,40.5476944 C5.8627447,40.0782277 6.1076252,39.6431535 6.50828935,39.395446 C6.9089535,39.1477384 7.40930961,39.1220756 7.83343011,39.3274809 L25.5107481,47.9665925 C26.5477984,48.4742201 27.2041195,49.5251529 27.2024748,50.6754664 L27.2024748,71.6021279 C27.1994791,72.0715945 26.9545986,72.5066687 26.5539344,72.7543763 C26.1532703,73.0020839 25.6529142,73.0277466 25.2287937,72.8223413 Z" id="Path" fill="#156DBC"></path>
                            <path d="M39.890425,5.61298207 L22.1518125,14.2764979 C21.6809852,14.5022771 21.3816694,14.9765125 21.3816694,15.4967114 C21.3816694,16.0169102 21.6809852,16.4911456 22.1518125,16.7169249 L39.1548917,25.0265788 C39.9970777,25.4409072 40.9851435,25.4409072 41.8273295,25.0265788 L58.8426675,16.7169249 C59.3134949,16.4911456 59.6128106,16.0169102 59.6128106,15.4967114 C59.6128106,14.9765125 59.3134949,14.5022771 58.8426675,14.2764979 L41.0917961,5.61298207 C40.7125892,5.42933932 40.2696319,5.42933932 39.890425,5.61298207 Z" id="Path" fill="#FFE000"></path>
                            <path d="M10.0032535,72.3464581 L2.28015337,68.5149877 C0.906935594,67.8491655 0.0257172069,66.4721521 7.06798681e-15,64.9519643 L7.06798681e-15,55.6173311 C-0.00170192153,55.1485966 0.240201357,54.7123062 0.639538798,54.4638758 C1.03887624,54.2154454 1.53887396,54.1901943 1.96142225,54.3971176 L9.73355791,58.1919815 C11.128249,58.8791986 12.001293,60.3037923 11.9769346,61.852622 L11.9769346,71.1994574 C11.9498004,71.6558057 11.695229,72.0684279 11.2986079,72.2989234 C10.9019869,72.5294189 10.415849,72.5472584 10.0032535,72.3464581 Z" id="Path" fill="#FFE000"></path>
                            <path d="M71.7880543,71.6387343 L79.1433878,67.9780938 C80.5054079,67.3010194 81.3683303,65.9182407 81.3745056,64.4028682 L81.3745056,55.5685225 C81.3762075,55.099788 81.1343042,54.6634977 80.7349668,54.4150673 C80.3356293,54.1666369 79.8356316,54.1413858 79.4130833,54.348309 L72.0577499,57.9357367 C70.6582895,58.6194792 69.7800319,60.0447916 69.8021143,61.5963772 L69.8021143,70.4551272 C69.8088436,70.9243959 70.0591517,71.3567532 70.4636792,71.597849 C70.8682068,71.8389447 71.369294,71.854414 71.7880543,71.6387343 Z" id="Path" fill="#156DBC"></path>
                            <path d="M38.7135717,0.414872588 L31.162096,4.07551307 C30.6912686,4.3012923 30.3919528,4.77552772 30.3919528,5.29572657 C30.3919528,5.81592541 30.6912686,6.29016084 31.162096,6.51594006 L38.7135717,10.1765805 C39.829995,10.726075 41.1399673,10.726075 42.2563906,10.1765805 L49.8078663,6.51594006 C50.2786936,6.29016084 50.5780094,5.81592541 50.5780094,5.29572657 C50.5780094,4.77552772 50.2786936,4.3012923 49.8078663,4.07551307 L42.2563906,0.414872588 C41.1399673,-0.134621888 39.829995,-0.134621888 38.7135717,0.414872588 Z" id="Path" fill="#055693"></path>
                        </g>
                        <polygon id="Path" fill="#004A82" points="104.102486 61.4255473 104.102486 69.0396795 103.305658 69.0396795 103.305658 62.8531971 99.002788 69.0396795 98.2795136 69.0396795 98.2795136 61.4255473 99.0763414 61.4255473 99.0763414 67.5266148 103.379211 61.4255473"></polygon>
                        <polygon id="Path" fill="#004A82" points="110.146118 63.7927615 110.146118 69.0396795 109.361549 69.0396795 109.361549 66.8066888 106.652335 66.8066888 106.652335 69.0396795 105.855507 69.0396795 105.855507 63.7927615 106.652335 63.7927615 106.652335 66.0257522 109.373808 66.0257522 109.373808 63.7927615"></polygon>
                        <polygon id="Path" fill="#004A82" points="116.128456 66.4894333 115.466476 67.3069764 115.466476 69.0396795 114.669648 69.0396795 114.669648 67.3069764 114.007668 66.4894333 112.144317 69.0396795 111.188124 69.0396795 113.468277 65.8915287 111.55589 63.7927615 112.622414 63.7927615 114.706425 66.1599757 114.706425 63.7927615 115.503253 63.7927615 115.503253 66.1599757 117.587264 63.7927615 118.678305 63.7927615 116.667847 65.8915287 118.911224 69.0396795 117.942772 69.0396795"></polygon>
                        <path d="M124.660643,66.4284226 C124.660643,66.5138376 124.660643,66.6114547 124.660643,66.6968696 L120.590692,66.6968696 C120.643002,67.6202272 121.414621,68.3399354 122.343713,68.3319557 C122.934702,68.3481839 123.488212,68.0446964 123.790262,67.5388169 L124.47676,67.8804767 C124.048752,68.6501174 123.227275,69.1200449 122.343713,69.1006902 C121.639168,69.1014858 120.965081,68.8148293 120.47861,68.3075519 C119.992138,67.8002745 119.735796,67.1167085 119.769346,66.4162205 C119.718907,65.7298222 119.952044,65.0526593 120.414844,64.5413296 C120.877644,64.0299999 121.530026,63.7287864 122.221124,63.7073465 C122.921178,63.7062075 123.588334,64.0029902 124.054442,64.5228943 C124.52055,65.0427983 124.74115,65.7362316 124.660643,66.4284226 Z M120.627468,65.8915287 L123.81478,65.8915287 C123.744579,65.0749991 123.056703,64.4486924 122.233383,64.4516768 C121.411575,64.4641511 120.725511,65.0792714 120.627468,65.8915287 Z" id="Shape" fill="#004A82" fill-rule="nonzero"></path>
                        <polygon id="Path" fill="#004A82" points="130.262955 63.7927615 130.262955 69.0396795 129.478386 69.0396795 129.478386 66.8066888 126.756913 66.8066888 126.756913 69.0396795 125.960085 69.0396795 125.960085 63.7927615 126.756913 63.7927615 126.756913 66.0257522 129.478386 66.0257522 129.478386 63.7927615"></polygon>
                        <path d="M136.514989,66.4284226 C136.514989,66.5138376 136.514989,66.6114547 136.514989,66.6968696 L132.469555,66.6968696 C132.521352,67.6108017 133.278429,68.3269624 134.198059,68.3319557 C134.793379,68.3526833 135.35267,68.0486023 135.656866,67.5388169 L136.343364,67.8804767 C135.901488,68.6423659 135.081845,69.1085651 134.198059,69.1006902 C133.495644,69.0981542 132.824773,68.8100395 132.340982,68.3031436 C131.857191,67.7962477 131.602498,67.1145944 131.635951,66.4162205 C131.585511,65.7298222 131.818649,65.0526593 132.281449,64.5413296 C132.744249,64.0299999 133.396631,63.7287864 134.087729,63.7073465 C134.785645,63.7096841 135.449485,64.0079699 135.912867,64.5274444 C136.37625,65.0469188 136.595253,65.7383424 136.514989,66.4284226 Z M132.481814,65.8915287 L135.705902,65.8915287 C135.647603,65.0741068 134.96001,64.443167 134.136764,64.4516768 C133.30036,64.4504744 132.592514,65.0663197 132.481814,65.8915287 Z" id="Shape" fill="#004A82" fill-rule="nonzero"></path>
                        <path d="M142.816058,66.4284226 C142.889298,67.1187817 142.663697,67.807517 142.195723,68.3222341 C141.727749,68.8369512 141.061695,69.1289329 140.36428,69.1250945 C139.692264,69.1417209 139.050058,68.8491143 138.623517,68.3319557 L138.623517,71.4068937 L137.838949,71.4068937 L137.838949,63.7927615 L138.623517,63.7927615 L138.623517,64.5126874 C139.050058,63.9955288 139.692264,63.7029222 140.36428,63.7195487 C141.064075,63.7153202 141.732334,64.0089459 142.200739,64.5264689 C142.669144,65.0439918 142.893049,65.7360832 142.816058,66.4284226 Z M142.01923,66.4284226 C142.081623,65.9446941 141.936321,65.4571903 141.618995,65.0855933 C141.301668,64.7139963 140.841703,64.4927176 140.352021,64.476081 C139.860686,64.4934068 139.398869,64.7139005 139.077764,65.0844729 C138.756659,65.4550452 138.605359,65.9421203 138.660294,66.4284226 C138.612388,66.9083863 138.76764,67.3865047 139.088704,67.7477656 C139.409767,68.1090265 139.867582,68.3207319 140.352021,68.3319557 C140.834736,68.3213866 141.29065,68.108914 141.607936,67.7466533 C141.925222,67.3843925 142.074527,66.9058571 142.01923,66.4284226 Z" id="Shape" fill="#004A82" fill-rule="nonzero"></path>
                        <polygon id="Path" fill="#004A82" points="148.540959 63.7927615 148.540959 69.0396795 147.75639 69.0396795 147.75639 66.8066888 145.034916 66.8066888 145.034916 69.0396795 144.238089 69.0396795 144.238089 63.7927615 145.034916 63.7927615 145.034916 66.0257522 147.75639 66.0257522 147.75639 63.7927615"></polygon>
                        <path d="M154.057459,67.3435828 C154.055798,67.8210779 153.853436,68.2760872 153.499423,68.5983242 C153.14541,68.9205613 152.672061,69.0806108 152.194108,69.0396795 L150.07332,69.0396795 L150.07332,63.7927615 L150.857889,63.7927615 L150.857889,65.647486 L152.194108,65.647486 C152.67473,65.5946862 153.154895,65.7506433 153.511729,66.0754473 C153.868562,66.4002513 154.067436,66.8623834 154.057459,67.3435828 Z M153.236113,67.3435828 C153.236113,66.7212739 152.819311,66.4284226 152.194108,66.4284226 L150.857889,66.4284226 L150.857889,68.2587429 L152.194108,68.2587429 C152.807052,68.2587429 153.236113,67.9658916 153.236113,67.3435828 Z M155.687891,63.7927615 L155.687891,69.0396795 L154.891063,69.0396795 L154.891063,63.7927615 L155.687891,63.7927615 Z" id="Shape" fill="#004A82" fill-rule="nonzero"></path>
                        <path d="M161.510863,63.7927615 L161.510863,69.0396795 L160.726294,69.0396795 L160.726294,65.1471985 L157.931268,69.0396795 L157.207993,69.0396795 L157.207993,63.7927615 L158.004821,63.7927615 L158.004821,67.6852425 L160.77533,63.7927615 L161.510863,63.7927615 Z M157.992562,61.7428028 L158.642283,61.7428028 C158.642283,62.1673631 158.988058,62.5115372 159.414593,62.5115372 C159.841128,62.5115372 160.186903,62.1673631 160.186903,61.7428028 L160.848883,61.7428028 C160.780468,62.4770387 160.16154,63.0386074 159.420723,63.0386074 C158.679906,63.0386074 158.060978,62.4770387 157.992562,61.7428028 Z" id="Shape" fill="#004A82" fill-rule="nonzero"></path>
                        <path d="M180.132116,66.4284226 L180.132116,66.6968696 L176.074424,66.6968696 C176.126499,67.6154941 176.890822,68.3334169 177.815186,68.3319557 C178.410506,68.3526833 178.969797,68.0486023 179.273994,67.5388169 L179.960491,67.8804767 C179.53043,68.6540709 178.703106,69.1246391 177.815186,69.1006902 C177.112771,69.0981542 176.4419,68.8100395 175.958109,68.3031436 C175.474318,67.7962477 175.219625,67.1145944 175.253078,66.4162205 C175.202639,65.7298222 175.435776,65.0526593 175.898576,64.5413296 C176.361376,64.0299999 177.013758,63.7287864 177.704856,63.7073465 C178.402773,63.7096841 179.066612,64.0079699 179.529994,64.5274444 C179.993377,65.0469188 180.212381,65.7383424 180.132116,66.4284226 Z M176.1112,65.8915287 L179.323029,65.8915287 C179.252531,65.0837725 178.568406,64.4666545 177.753891,64.476081 C176.92628,64.4686193 176.222343,65.0751768 176.1112,65.8915287 Z" id="Shape" fill="#004A82" fill-rule="nonzero"></path>
                        <polygon id="Path" fill="#004A82" points="185.746687 63.7927615 185.746687 69.0396795 184.962118 69.0396795 184.962118 66.8066888 182.240645 66.8066888 182.240645 69.0396795 181.431558 69.0396795 181.431558 63.7927615 182.228386 63.7927615 182.228386 66.0257522 184.949859 66.0257522 184.949859 63.7927615"></polygon>
                        <polygon id="Path" fill="#004A82" points="191.238669 64.5736981 189.534684 64.5736981 189.534684 69.0396795 188.786892 69.0396795 188.786892 64.5736981 187.095165 64.5736981 187.095165 63.7927615 191.238669 63.7927615"></polygon>
                        <path d="M197.368114,66.4284226 C197.441354,67.1187817 197.215753,67.807517 196.747779,68.3222341 C196.279805,68.8369512 195.613752,69.1289329 194.916336,69.1250945 C194.244321,69.1417209 193.602115,68.8491143 193.175574,68.3319557 L193.175574,71.4068937 L192.391005,71.4068937 L192.391005,63.7927615 L193.175574,63.7927615 L193.175574,64.5126874 C193.602115,63.9955288 194.244321,63.7029222 194.916336,63.7195487 C195.616131,63.7153202 196.28439,64.0089459 196.752795,64.5264689 C197.221201,65.0439918 197.445106,65.7360832 197.368114,66.4284226 Z M196.571286,66.4284226 C196.63368,65.9446941 196.488378,65.4571903 196.171051,65.0855933 C195.853724,64.7139963 195.393759,64.4927176 194.904077,64.476081 C194.412742,64.4934068 193.950925,64.7139005 193.62982,65.0844729 C193.308715,65.4550452 193.157415,65.9421203 193.21235,66.4284226 C193.164306,66.9104597 193.321176,67.3905061 193.644927,67.7521697 C193.968677,68.1138334 194.429744,68.3240882 194.916336,68.3319557 C195.394724,68.3146929 195.84413,68.0993401 196.156049,67.737892 C196.467967,67.3764439 196.61405,66.9017509 196.559027,66.4284226 L196.571286,66.4284226 Z" id="Shape" fill="#004A82" fill-rule="nonzero"></path>
                        <polygon id="Path" fill="#004A82" points="174.505286 68.2587429 174.505286 70.4185208 173.708458 70.4185208 173.708458 69.0396795 168.106146 69.0396795 168.106146 61.4377494 168.890715 61.4377494 168.890715 68.2587429 172.764524 68.2587429 172.764524 61.4377494 173.549092 61.4377494 173.549092 68.2587429"></polygon>
                        <polygon id="Path" fill="#004A82" points="104.372181 23.3792906 109.373808 17.4612551 105.610329 17.4612551 101.564896 22.2322899 101.564896 17.4612551 98.6840569 17.4612551 98.6840569 30.6883694 101.564896 30.6883694 101.564896 26.673867 102.447536 25.6366855 106.125203 30.6883694 109.655763 30.6883694"></polygon>
                        <path d="M117.244015,17.3514359 C115.470416,17.3347868 113.769431,18.0516057 112.547018,19.3308169 C111.324604,20.6100282 110.690427,22.3368705 110.795839,24.0992165 C110.692492,26.4568102 111.897235,28.6807037 113.932973,29.8902017 C115.96871,31.0996997 118.507061,31.0996997 120.542798,29.8902017 C122.578536,28.6807037 123.78328,26.4568102 123.679932,24.0992165 C123.785187,22.3390057 123.152647,20.6141223 121.932936,19.3353079 C120.713225,18.0564934 119.015492,17.3381867 117.244015,17.3514359 Z M117.244015,27.942889 C116.245767,27.9553913 115.289829,27.5422336 114.617466,26.8076903 C113.945103,26.073147 113.620548,25.0873928 113.725714,24.0992165 C113.588353,22.7648313 114.226123,21.4689989 115.369583,20.7591715 C116.513043,20.0493441 117.962728,20.0493441 119.106188,20.7591715 C120.249649,21.4689989 120.887418,22.7648313 120.750057,24.0992165 C120.854958,25.0852561 120.532002,26.0689772 119.862375,26.8030884 C119.192749,27.5371995 118.240138,27.9518811 117.244015,27.942889 Z" id="Shape" fill="#004A82" fill-rule="nonzero"></path>
                        <polygon id="Path" fill="#004A82" points="140.045549 17.4612551 137.446664 17.4612551 133.52382 23.7331525 129.625493 17.4612551 127.002091 17.4612551 127.002091 30.6883694 129.944224 30.6883694 129.944224 23.1840564 132.739251 27.6866442 134.430977 27.6866442 137.16471 23.1840564 137.16471 30.7005715 140.045549 30.7005715"></polygon>
                        <polygon id="Path" fill="#004A82" points="153.996164 30.5053374 153.996164 30.7249758 156.91378 30.7249758 156.91378 17.4612551 154.314895 17.4612551 150.392051 23.7331525 146.493724 17.4612551 143.870322 17.4612551 143.870322 30.6883694 146.751161 30.6883694 146.751161 23.1840564 149.558447 27.6744421 151.250173 27.6744421 153.996164 23.1840564"></polygon>
                        <path d="M170.937949,17.4612551 L167.799673,17.4612551 L165.495002,23.2572692 L162.896118,17.4612551 L159.684289,17.4612551 L163.925865,26.5640478 C163.521321,27.4181972 163.129037,27.942889 162.503833,27.942889 C162.369916,27.9651887 162.233207,27.9651887 162.09929,27.942889 L161.890889,27.8818783 L161.167614,30.6761672 L161.388274,30.6761672 C161.791561,30.7603932 162.202126,30.8053463 162.614163,30.8103907 C164.992388,30.8103907 165.973099,29.0654854 166.904775,26.9545161 L170.937949,17.4612551 Z" id="Path" fill="#004A82"></path>
                        <polygon id="Path" fill="#004A82" points="184.27562 30.6883694 184.27562 17.4612551 181.431558 17.4612551 181.431558 22.7081731 176.650591 22.7081731 176.650591 17.4612551 173.782011 17.4612551 173.782011 30.6883694 176.650591 30.6883694 176.650591 25.4658556 181.431558 25.4658556 181.431558 30.6883694"></polygon>
                        <path d="M194.781488,17.4612551 L191.986462,17.4612551 L187.082906,30.6883694 L190.319253,30.6883694 L191.312223,27.7964634 L195.345397,27.7964634 L196.350626,30.6883694 L199.599232,30.6883694 L194.781488,17.4612551 Z M192.32971,25.0387809 L193.383975,22.0004493 L194.438239,25.0387809 L192.32971,25.0387809 Z" id="Shape" fill="#004A82" fill-rule="nonzero"></path>
                        <path d="M204.343422,17.4612551 L204.343422,19.3037775 C204.343422,22.964418 204.404716,26.7226755 203.191086,27.7476549 C202.983304,27.8814426 202.739707,27.9495041 202.492329,27.942889 C202.329333,27.9600625 202.16497,27.9600625 202.001974,27.942889 L201.769055,27.942889 L201.278699,30.7981886 L201.487101,30.7981886 C201.810182,30.861429 202.138547,30.8941135 202.467812,30.8958057 C203.380806,30.9073092 204.272336,30.6200823 205.005402,30.0782626 C206.991342,28.5651979 207.187484,24.4286742 207.199743,20.3165547 L209.651521,20.3165547 L209.651521,30.7859865 L212.53236,30.7859865 L212.53236,17.4612551 L204.343422,17.4612551 Z" id="Shape" fill="#004A82" fill-rule="nonzero"></path>
                        <path d="M221.68975,21.8540237 L219.617998,21.8540237 L219.617998,17.4612551 L216.737159,17.4612551 L216.737159,30.6883694 L221.640714,30.6883694 C223.304896,30.8115794 224.898453,29.9976505 225.768349,28.5801283 C226.638246,27.1626061 226.638246,25.379787 225.768349,23.9622648 C224.898453,22.5447425 223.304896,21.7308137 221.640714,21.8540237 L221.68975,21.8540237 Z M221.68975,27.9550912 L219.654774,27.9550912 L219.654774,24.599504 L221.68975,24.599504 C222.32177,24.5456093 222.930372,24.8507593 223.263059,25.3883521 C223.595745,25.925945 223.595745,26.6042459 223.263059,27.1418388 C222.930372,27.6794317 222.32177,27.9845816 221.68975,27.9306869 L221.68975,27.9550912 Z" id="Shape" fill="#004A82" fill-rule="nonzero"></path>
                        <polygon id="Path" fill="#004A82" points="237.148209 17.4612551 237.148209 22.7081731 232.416278 22.7081731 232.416278 17.4612551 229.535439 17.4612551 229.535439 30.6883694 232.416278 30.6883694 232.416278 25.4658556 237.148209 25.4658556 237.148209 30.6883694 240.029048 30.6883694 240.029048 17.4612551"></polygon>
                        <rect id="Rectangle" fill="#004A82" x="254.286136" y="17.4612551" width="2.88083893" height="13.2149121"></rect>
                        <path d="M248.757377,21.8540237 L246.685625,21.8540237 L246.685625,17.4612551 L243.804786,17.4612551 L243.804786,30.6883694 L248.708341,30.6883694 C250.372523,30.8115794 251.96608,29.9976505 252.835976,28.5801283 C253.705873,27.1626061 253.705873,25.379787 252.835976,23.9622648 C251.96608,22.5447425 250.372523,21.7308137 248.708341,21.8540237 L248.757377,21.8540237 Z M248.757377,27.9550912 L246.722401,27.9550912 L246.722401,24.599504 L248.757377,24.599504 C249.389397,24.5456093 249.997999,24.8507593 250.330686,25.3883521 C250.663372,25.925945 250.663372,26.6042459 250.330686,27.1418388 C249.997999,27.6794317 249.389397,27.9845816 248.757377,27.9306869 L248.757377,27.9550912 Z" id="Shape" fill="#004A82" fill-rule="nonzero"></path>
                        <polygon id="Path" fill="#004A82" points="263.823551 27.9306869 263.823551 25.4658556 269.229722 25.4658556 269.229722 22.7081731 263.823551 22.7081731 263.823551 20.2433419 269.805889 20.2433419 269.805889 17.4612551 260.942713 17.4612551 260.942713 30.6883694 269.916219 30.6883694 269.916219 27.9306869"></polygon>
                        <path d="M106.235533,48.4302736 L106.125203,48.6011035 C105.50409,49.6078731 104.380795,50.1973287 103.195328,50.1385725 C102.198095,50.1440501 101.245704,49.7265656 100.576515,48.9906042 C99.9073249,48.2546428 99.5846642,47.2698517 99.6892858,46.2826978 C99.5809172,45.2935623 99.9018837,44.3054172 100.571504,43.5666514 C101.241125,42.8278857 102.195718,42.4087569 103.195328,42.4146211 C104.37465,42.3560201 105.494263,42.9342181 106.125203,43.9276858 L106.235533,44.0863136 L108.822158,42.8050894 L108.711828,42.7074723 C107.596644,40.7306263 105.472148,39.5323192 103.195328,39.5959279 C101.424976,39.5792713 99.7271032,40.2948037 98.506987,41.5717296 C97.2868707,42.8486555 96.6539899,44.5723986 96.7594114,46.3315064 C96.6539899,48.0906142 97.2868707,49.8143572 98.506987,51.0912831 C99.7271032,52.368209 101.424976,53.0837414 103.195328,53.0670849 C105.469545,53.1331324 107.593405,51.9398813 108.711828,49.9677426 L108.822158,49.7725084 L106.235533,48.4302736 Z" id="Path" fill="#004A82"></path>
                        <polygon id="Path" fill="#004A82" points="119.475133 39.6569386 114.75546 47.3930921 114.75546 39.6569386 111.874622 39.6569386 111.874622 52.8840528 114.596095 52.8840528 119.315767 45.1478993 119.315767 52.8840528 122.196606 52.8840528 122.196606 39.6569386"></polygon>
                        <path d="M135.17877,48.5156885 L134.994886,48.4302736 L134.896815,48.6011035 C134.267966,49.6058723 133.142677,50.1939139 131.954682,50.1385725 C130.957449,50.1440501 130.005058,49.7265656 129.335868,48.9906042 C128.666679,48.2546428 128.344018,47.2698517 128.44864,46.2826978 C128.340271,45.2935623 128.661237,44.3054172 129.330858,43.5666514 C130.000479,42.8278857 130.955072,42.4087569 131.954682,42.4146211 C133.119971,42.3744008 134.219973,42.9496924 134.84778,43.9276858 L134.945851,44.0863136 L135.129734,44.0008986 L137.324075,42.9027065 L137.532476,42.8050894 L137.422146,42.6098552 C136.306962,40.6330092 134.182467,39.4347021 131.905646,39.4983108 C130.135294,39.4816542 128.437421,40.1971866 127.217305,41.4741126 C125.997189,42.7510385 125.364308,44.4747815 125.46973,46.2338893 C125.364308,47.9929971 125.997189,49.7167401 127.217305,50.993666 C128.437421,52.270592 130.135294,52.9861244 131.905646,52.9694678 C134.179863,53.0355153 136.303723,51.8422642 137.422146,49.8701255 L137.532476,49.6748914 L137.324075,49.5650721 L135.17877,48.5156885 Z" id="Path" fill="#004A82"></path>
                        <polygon id="Path" fill="#004A82" points="139.996513 39.6569386 139.996513 42.4268232 143.429002 42.4268232 143.429002 52.8718507 146.309841 52.8718507 146.309841 42.4268232 149.754589 42.4268232 149.754589 39.6569386"></polygon>
                        <polygon id="Path" fill="#004A82" points="156.337612 50.1263704 156.337612 47.649337 161.743782 47.649337 161.743782 44.9038566 156.337612 44.9038566 156.337612 42.4268232 162.307691 42.4268232 162.307691 39.6569386 153.456773 39.6569386 153.456773 52.8840528 162.418021 52.8840528 162.418021 50.1263704"></polygon>
                        <polygon id="Path" fill="#004A82" points="176.368637 39.6569386 172.433534 45.9288359 168.547466 39.6569386 165.924063 39.6569386 165.924063 52.8840528 168.804902 52.8840528 168.804902 45.3675377 171.599929 49.8701255 173.291656 49.8701255 176.086682 45.3675377 176.086682 52.8840528 178.967521 52.8840528 178.967521 39.6569386"></polygon>
                        <rect id="Rectangle" fill="#004A82" x="193.224609" y="39.6569386" width="2.88083893" height="13.2149121"></rect>
                        <path d="M187.69585,44.037505 L185.624098,44.037505 L185.624098,39.6569386 L182.743259,39.6569386 L182.743259,52.8718507 L187.646815,52.8718507 C189.310997,52.9950607 190.904553,52.1811319 191.77445,50.7636096 C192.644346,49.3460874 192.644346,47.5632683 191.77445,46.1457461 C190.904553,44.7282239 189.310997,43.914295 187.646815,44.037505 L187.69585,44.037505 Z M187.69585,50.1263704 L185.660875,50.1263704 L185.660875,46.7951875 L187.69585,46.7951875 C188.32787,46.7412928 188.936473,47.0464427 189.269159,47.5840356 C189.601845,48.1216285 189.601845,48.7999294 189.269159,49.3375223 C188.936473,49.8751151 188.32787,50.1802651 187.69585,50.1263704 Z" id="Shape" fill="#004A82" fill-rule="nonzero"></path>
                    </g>
                </g>
            </g>
        </g>
    </g>
</svg>