<?xml version="1.0" encoding="UTF-8"?>
<svg width="148px" height="134px" viewBox="0 0 148 134" version="1.1" xmlns="http://www.w3.org/2000/svg" xmlns:xlink="http://www.w3.org/1999/xlink">
    <!-- Generator: Sketch 52 (66869) - http://www.bohemiancoding.com/sketch -->
    <title>Group 3</title>
    <desc>Created with Sketch.</desc>
    <g id="Website" stroke="none" stroke-width="1" fill="none" fill-rule="evenodd">
        <g id="komsis01_main-copy" transform="translate(-436.000000, -1556.000000)" fill="#FFFFFF">
            <g id="Group-8" transform="translate(345.000000, 1444.000000)">
                <g id="Group-3" transform="translate(91.000000, 112.000000)">
                    <g id="Path">
                        <path d="M68.8579782,119.06314 L33.0280728,101.46988 C32.2343337,101.102621 31.7304223,100.303314 31.7413022,99.4287954 L31.7413022,57.0097372 C31.7066595,56.2093887 32.1061773,55.4525253 32.786538,55.0295984 C33.4668987,54.6066715 34.3224184,54.5833764 35.0247858,54.9686528 L68.8579782,71.5635563 C70.869797,72.5535029 72.143382,74.6015652 72.1414617,76.8437529 L72.1414617,117.022055 C72.1761044,117.822404 71.7765866,118.579267 71.0962259,119.002194 C70.4158652,119.425121 69.5603456,119.448416 68.8579782,119.06314 Z" opacity="0.574967448"></path>
                        <path d="M78.8637288,119.06314 L114.693634,101.46988 C115.487373,101.102621 115.991285,100.303314 115.980405,99.4287954 L115.980405,57.0097372 C116.015047,56.2093887 115.61553,55.4525253 114.935169,55.0295984 C114.254808,54.6066715 113.399289,54.5833764 112.696921,54.9686528 L78.8859145,71.5635563 C76.839548,72.5282035 75.5282216,74.5814645 75.5136881,76.8437529 L75.5136881,117.022055 C75.4635852,117.842832 75.8715701,118.623998 76.5738014,119.051847 C77.2760328,119.479697 78.1573119,119.484043 78.8637288,119.06314 Z" opacity="0.574967448"></path>
                        <path d="M72.8957755,29.8766262 L37.154613,47.4033291 C36.2927842,47.7302228 35.7228538,48.5559501 35.7228538,49.4776921 C35.7228538,50.3994341 36.2927842,51.2251613 37.154613,51.552055 L71.2984051,68.3244441 C72.9443912,69.1236947 74.8660586,69.1236947 76.5120446,68.3244441 L110.655837,51.4633122 C111.517666,51.1364185 112.087596,50.3106913 112.087596,49.3889493 C112.087596,48.4672073 111.517666,47.64148 110.655837,47.3145863 L74.9146742,29.7878834 C74.2665204,29.4914593 73.5154205,29.5244746 72.8957755,29.8766262 Z" opacity="0.574967448"></path>
                        <path d="M101.825928,132.840459 L135.415078,116.156813 C136.249278,115.729323 136.778634,114.875523 136.790591,113.938243 L136.990263,74.1592832 C136.993343,73.3070387 136.555555,72.5137835 135.832848,72.0620918 C135.110141,71.6104002 134.205263,71.5644891 133.440551,71.9407132 L101.315657,87.6481888 C99.4461453,88.579195 98.261503,90.484924 98.2540305,92.5734141 L98.2540305,130.621889 C98.2594521,131.475465 98.7026281,132.266509 99.4277358,132.716887 C100.152843,133.167264 101.05837,133.213924 101.825928,132.840459 Z" opacity="0.574967448"></path>
                        <path d="M45.7404789,132.840459 L12.2844434,116.156813 C11.4394642,115.741115 10.9055327,114.879935 10.90893,113.938243 L10.687073,74.1592832 C10.6924946,73.3057074 11.1356706,72.5146634 11.8607783,72.064286 C12.5858859,71.6139086 13.4914126,71.5672491 14.2589707,71.9407132 L46.25075,87.6481888 C48.1275665,88.571148 49.3153529,90.481935 49.3123765,92.5734141 L49.3123765,130.621889 C49.306955,131.475465 48.863779,132.266509 48.1386713,132.716887 C47.4135636,133.167264 46.508037,133.213924 45.7404789,132.840459 Z" opacity="0.574967448"></path>
                        <path d="M72.2745759,10.6416244 L40.1718682,26.3934713 C39.3197816,26.803979 38.7780906,27.6662252 38.7780906,28.6120413 C38.7780906,29.5578574 39.3197816,30.4201036 40.1718682,30.8306113 L70.9434339,45.9390729 C72.4675921,46.6923974 74.2557583,46.6923974 75.7799165,45.9390729 L106.573668,30.8306113 C107.425755,30.4201036 107.967446,29.5578574 107.967446,28.6120413 C107.967446,27.6662252 107.425755,26.803979 106.573668,26.3934713 L74.4487745,10.6416244 C73.7624994,10.3077285 72.960851,10.3077285 72.2745759,10.6416244 Z" opacity="0.574967448"></path>
                        <path d="M18.1858396,131.975217 L4.20884865,125.008907 C1.72364814,123.798322 0.128850551,121.294661 0.0823084682,118.530683 L0.0823084682,101.558623 C0.0792283913,100.706378 0.517016312,99.9131228 1.23972296,99.4614312 C1.96242961,99.0097395 2.86730764,98.9638285 3.63202045,99.3400526 L17.6977542,106.239805 C20.2218164,107.489291 21.8018202,110.079461 21.7577373,112.895515 L21.7577373,129.889761 C21.7086308,130.719486 21.2479164,131.469708 20.5301258,131.888791 C19.8123352,132.307873 18.9325403,132.340309 18.1858396,131.975217 Z" opacity="0.574967448"></path>
                        <path d="M130.001767,130.688447 L143.313187,124.032737 C145.778122,122.801692 147.339809,120.287549 147.350984,117.532327 L147.350984,101.46988 C147.354064,100.617635 146.916277,99.82438 146.19357,99.3726884 C145.470863,98.9209967 144.565985,98.8750857 143.801272,99.2513098 L130.489852,105.773906 C127.957159,107.017074 126.36772,109.608551 126.407684,112.429616 L126.407684,128.536434 C126.419862,129.38965 126.872861,130.175754 127.60496,130.61411 C128.33706,131.052466 129.24391,131.080592 130.001767,130.688447 Z" opacity="0.574967448"></path>
                        <path d="M70.1447487,1.19051625 L56.4783576,7.84622622 C55.626271,8.2567339 55.08458,9.11898012 55.08458,10.0647962 C55.08458,11.0106123 55.626271,11.8728585 56.4783576,12.2833662 L70.1447487,18.9390762 C72.1652118,19.938157 74.5359529,19.938157 76.556416,18.9390762 L90.2228072,12.2833662 C91.0748937,11.8728585 91.6165848,11.0106123 91.6165848,10.0647962 C91.6165848,9.11898012 91.0748937,8.2567339 90.2228072,7.84622622 L76.556416,1.19051625 C74.5359529,0.191435382 72.1652118,0.191435382 70.1447487,1.19051625 Z" opacity="0.574967448"></path>
                    </g>
                </g>
            </g>
        </g>
    </g>
</svg>