<?xml version="1.0" encoding="UTF-8"?>
<svg width="536px" height="511px" viewBox="0 0 536 511" version="1.1" xmlns="http://www.w3.org/2000/svg" xmlns:xlink="http://www.w3.org/1999/xlink">
    <!-- Generator: Sketch 46.2 (44496) - http://www.bohemiancoding.com/sketch -->
    <title>notific</title>
    <desc>Created with Sketch.</desc>
    <defs></defs>
    <g id="Symbols" stroke="none" stroke-width="1" fill="none" fill-rule="evenodd">
        <g id="notific" fill-rule="nonzero" fill="#FFD506">
            <path d="M142.8,41.55 L107.1,5.85 C45.9,51.75 5.1,123.15 0,204.75 L51,204.75 C56.1,135.9 89.25,77.25 142.8,41.55 Z M484.5,204.75 L535.5,204.75 C530.4,123.15 492.15,51.75 430.95,5.85 L395.25,41.55 C446.25,77.25 479.4,135.9 484.5,204.75 Z M433.5,217.5 C433.5,138.45 379.95,74.7 306,56.85 L306,39 C306,18.6 288.15,0.75 267.75,0.75 C247.35,0.75 229.5,18.6 229.5,39 L229.5,56.85 C155.55,74.7 102,138.45 102,217.5 L102,357.75 L51,408.75 L51,434.25 L484.5,434.25 L484.5,408.75 L433.5,357.75 L433.5,217.5 Z M267.75,510.75 C270.3,510.75 275.4,510.75 277.95,510.75 C295.8,508.2 308.55,495.45 313.65,480.15 C316.2,475.049 318.75,467.4 318.75,459.75 L216.75,459.75 C216.75,487.8 239.7,510.75 267.75,510.75 Z" id="Shape"></path>
        </g>
    </g>
</svg>