<svg xmlns="http://www.w3.org/2000/svg" xmlns:xlink="http://www.w3.org/1999/xlink" width="0" height="0" style="position:absolute">
	
		<symbol id="arrow_left" viewBox="0 0 8 5">
			<title>arrow left</title><path d="M3 0L0 2.53 3 5V3h5V2H3z" fill-rule="nonzero"></path>
		</symbol>
	
		<symbol id="arrow_reload" viewBox="0 0 19 17">
			<defs><path id="10a" d="M1056.62 1689.95a8.37 8.37 0 0 0-15.06-7.24l-.92-2.6a.63.63 0 1 0-1.2.43l1.48 4.16a.64.64 0 0 0 .81.38l4.4-1.55a.63.63 0 1 0-.43-1.2l-3.08 1.1a7.1 7.1 0 1 1 1.26 7.76.63.63 0 1 0-.93.86 8.35 8.35 0 0 0 13.67-2.1z"></path></defs><use xlink:href="#10a" transform="translate(-1039 -1678)"></use>
		</symbol>
	
		<symbol id="calendar" viewBox="0 0 7 8">
			<defs><path id="20a" d="M8 0v2H1V0zm-.01 3v4.91c0 .05-.04.09-.09.09H1.09A.09.09 0 0 1 1 7.91V3zM2 5h1V4H2zm2 0h1V4H4zm2 0h1V4H6zM2 7h1V6H2zm2 0h1V6H4z"></path></defs><use xlink:href="#20a" transform="translate(-1)"></use>
		</symbol>
	
		<symbol id="caret-bottom" viewBox="0 0 8 8">
			<path d="M0 2l4 4 4-4H0z"></path>
		</symbol>
	
		<symbol id="cart" viewBox="0 0 9 6">
			<defs><path id="40a" d="M1.34 1a.5.5 0 0 1 .05 0 .5.5 0 0 1 .09 0h2a.5.5 0 0 1 .44.28L4.3 2h4.44c.14 0 .2.12.16.25l-.81 2.5a.4.4 0 0 1-.34.25h-3.5a.4.4 0 0 1-.34-.25l-.82-2.5-.1-.25H1.5a.5.5 0 0 1-.15-1zm0 0h-.01zM5 6.5a.5.5 0 0 1-.5.5.5.5 0 0 1-.5-.5c0-.28.22-.5.5-.5s.5.22.5.5zm3 0a.5.5 0 0 1-.5.5.5.5 0 0 1-.5-.5c0-.28.22-.5.5-.5s.5.22.5.5z"></path></defs><use xlink:href="#40a" transform="translate(0 -1)"></use>
		</symbol>
	
		<symbol id="checkbox_arrow" viewBox="0 0 443 340">
			<title>check</title><path d="M434.539 47.499L395.711 8.671c-5.324-5.328-11.799-7.993-19.41-7.993-7.618 0-14.093 2.665-19.417 7.993L169.59 196.248l-83.939-84.225c-5.33-5.33-11.801-7.992-19.412-7.992-7.616 0-14.087 2.662-19.417 7.992L7.994 150.852C2.664 156.181 0 162.654 0 170.269c0 7.609 2.664 14.088 7.994 19.416l103.351 103.349 38.831 38.828c5.327 5.332 11.8 7.994 19.414 7.994 7.611 0 14.084-2.669 19.414-7.994l38.83-38.828L434.539 86.33c5.325-5.33 7.994-11.802 7.994-19.417.004-7.611-2.669-14.084-7.994-19.414z" fill-rule="nonzero"></path>
		</symbol>
	
		<symbol id="clock" viewBox="0 0 8 8">
			<defs><path id="60a" d="M8 4c0 2.2-1.8 4-4 4S0 6.2 0 4s1.8-4 4-4 4 1.8 4 4zM1 4a3 3 0 1 0 6 0 3 3 0 0 0-6 0zm2.5-1.98h1v1.81l.34.34.38.34-.72.72-.34-.38-.5-.5-.16-.13z"></path></defs><use xlink:href="#60a"></use>
		</symbol>
	
		<symbol id="close-button" viewBox="0 0 17 17">
			<defs><path id="70a" d="M17 1.7L15.3 0 8.5 6.8 1.7 0 0 1.7l6.8 6.8L0 15.3 1.7 17l6.8-6.8 6.8 6.8 1.7-1.7-6.8-6.8z"></path></defs><use xlink:href="#70a"></use>
		</symbol>
	
		<symbol id="compare_icon" viewBox="0 0 8 8">
			<defs><path id="80a" d="M4 0v4H0V0zm2 2v4H2V5h3V2zm2 2v4H4V7h3V4z"></path></defs><use xlink:href="#80a"></use>
		</symbol>
	
		<symbol id="delivery" viewBox="0 0 526 383">
			<title>delivery</title><path d="M453.557 96.119h-71.618V.629H47.745C21.487.629 0 22.138 0 48.374V310.95h47.745c0 39.627 31.991 71.574 71.596 71.574 39.649 0 71.618-31.969 71.618-71.574h143.213c0 39.627 31.991 71.574 71.618 71.574 39.627 0 71.596-31.969 71.596-71.574h47.767V191.587l-71.596-95.468zM119.341 346.77c-19.803 0-35.798-16.017-35.798-35.82 0-19.825 15.973-35.82 35.798-35.82 19.825 0 35.82 15.973 35.82 35.82 0 19.781-15.996 35.82-35.82 35.82zm322.268-214.853l46.782 59.67H381.917v-59.67h59.692zM405.812 346.77c-19.825 0-35.82-16.017-35.82-35.82 0-19.825 15.973-35.82 35.82-35.82 19.803 0 35.798 15.973 35.798 35.82-.001 19.781-15.996 35.82-35.798 35.82z" fill-rule="nonzero"></path>
		</symbol>
	
		<symbol id="direction-arrow" viewBox="0 0 26 9">
			<title>Group 2 Copy 2</title><g fill-rule="nonzero"><path d="M0 4h25v1H0z"></path><path d="M21.232.025l4.243 4.243-.707.707L20.525.732z"></path><path d="M20.525 8.268l4.243-4.243.707.707-4.243 4.243z"></path></g>
		</symbol>
	
		<symbol id="done_icon" viewBox="0 0 400 400">
			<title>dane</title><g fill-rule="nonzero"><path d="M199.996 0C89.713 0 0 89.72 0 200s89.713 200 199.996 200C310.279 400 400 310.28 400 200S310.279 0 199.996 0zm0 373.77C104.18 373.77 26.23 295.816 26.23 200c0-95.817 77.949-173.769 173.766-173.769S373.767 104.184 373.767 200c.001 95.816-77.955 173.77-173.771 173.77z"></path><path d="M272.406 134.526L169.275 237.652l-41.689-41.68c-5.123-5.117-13.422-5.12-18.545.003-5.125 5.125-5.125 13.425 0 18.548l50.963 50.955a13.079 13.079 0 0 0 9.271 3.838c3.355 0 6.719-1.28 9.279-3.842.008-.011.014-.022.027-.035L290.95 153.071c5.125-5.12 5.125-13.426 0-18.546-5.122-5.123-13.427-5.123-18.544.001z"></path></g>
		</symbol>
	
		<symbol id="email" viewBox="0 0 8 6">
			<defs><path id="120a" d="M0 0v1l4 2 4-2V0zm0 2v4h8V2L4 4z"></path></defs><use xlink:href="#120a"></use>
		</symbol>
	
		<symbol id="facebook" viewBox="0 0 9 17">
			<title>fb</title><path d="M2.615 17V9.396H0V6.375h2.615v-2.38C2.615 1.407 4.237 0 6.607 0 7.742 0 8.717.083 9 .12v2.702H7.357c-1.289 0-1.538.598-1.538 1.471v2.082h2.908l-.399 3.021H5.82V17" fill-rule="nonzero"></path>
		</symbol>
	
		<symbol id="file_icon" viewBox="0 0 30 38">
			<defs><path id="140a" d="M23.34 0L30 6.66v31.08H0V0zM2.9 34.84h24.2V9.68h-6.78V2.9H2.9zM23.23 6.77H26L23.23 4z"></path></defs><use xlink:href="#140a"></use>
		</symbol>
	
		<symbol id="grid-three-up" viewBox="0 0 8 8">
			<path d="M0 0v2h2V0H0zm3 0v2h2V0H3zm3 0v2h2V0H6zM0 3v2h2V3H0zm3 0v2h2V3H3zm3 0v2h2V3H6zM0 6v2h2V6H0zm3 0v2h2V6H3zm3 0v2h2V6H6z"></path>
		</symbol>
	
		<symbol id="heart" viewBox="0 0 8 7">
			<defs><path id="160a" d="M2 0a2.01 2.01 0 0 0-2 2c0 .55.23 1.04.59 1.41L4 6.82l3.41-3.41a1.98 1.98 0 0 0 0-2.82 1.98 1.98 0 0 0-2.82 0C4.23.95 4 1.44 4 2a2.01 2.01 0 0 0-2-2z"></path></defs><use xlink:href="#160a"></use>
		</symbol>
	
		<symbol id="insta" viewBox="0 0 16 16">
			<title>ista</title><path d="M8.002 3.898A4.095 4.095 0 0 0 3.9 8 4.095 4.095 0 0 0 8 12.102 4.095 4.095 0 0 0 12.104 8a4.095 4.095 0 0 0-4.101-4.102zm0 6.769A2.672 2.672 0 0 1 5.335 8a2.67 2.67 0 0 1 2.667-2.667A2.67 2.67 0 0 1 10.668 8c0 1.47-1.2 2.667-2.666 2.667zm5.225-6.937a.954.954 0 0 1-.956.957.957.957 0 1 1 .957-.957zm2.717.971c-.06-1.282-.354-2.417-1.292-3.352C13.716.413 12.582.12 11.3.056c-1.32-.075-5.28-.075-6.6 0-1.278.06-2.413.354-3.352 1.29C.41 2.28.12 3.415.056 4.697c-.075 1.32-.075 5.28 0 6.6.06 1.283.354 2.418 1.292 3.353.94.936 2.07 1.229 3.352 1.293 1.32.075 5.28.075 6.6 0 1.281-.06 2.416-.354 3.352-1.293.935-.935 1.228-2.07 1.292-3.352.075-1.321.075-5.277 0-6.598zm-1.706 8.015a2.7 2.7 0 0 1-1.521 1.521c-1.053.418-3.552.322-4.715.322-1.164 0-3.666.092-4.715-.322a2.7 2.7 0 0 1-1.521-1.52C1.348 11.662 1.445 9.163 1.445 8c0-1.164-.093-3.667.321-4.716a2.7 2.7 0 0 1 1.52-1.521c1.054-.418 3.552-.322 4.716-.322 1.163 0 3.666-.092 4.715.322a2.7 2.7 0 0 1 1.52 1.52c.418 1.054.322 3.553.322 4.717 0 1.164.096 3.667-.321 4.716z" fill-rule="nonzero"></path>
		</symbol>
	
		<symbol id="list" viewBox="0 0 8 8">
			<path d="M.5 0C.22 0 0 .22 0 .5s.22.5.5.5.5-.22.5-.5S.78 0 .5 0zM2 0v1h6V0H2zM.5 2c-.28 0-.5.22-.5.5s.22.5.5.5.5-.22.5-.5S.78 2 .5 2zM2 2v1h6V2H2zM.5 4c-.28 0-.5.22-.5.5s.22.5.5.5.5-.22.5-.5S.78 4 .5 4zM2 4v1h6V4H2zM.5 6c-.28 0-.5.22-.5.5s.22.5.5.5.5-.22.5-.5S.78 6 .5 6zM2 6v1h6V6H2z"></path>
		</symbol>
	
		<symbol id="loader" viewBox="0 0 90 90">
			<title>preloader</title><path d="M85.641 41.036a4.073 4.073 0 0 1 4.078 4.068 4.073 4.073 0 0 1-4.078 4.068H69.33a4.073 4.073 0 0 1-4.079-4.068 4.073 4.073 0 0 1 4.079-4.068H85.64zm-65.25 0a4.073 4.073 0 0 1 4.078 4.068 4.073 4.073 0 0 1-4.078 4.068H4.078A4.073 4.073 0 0 1 0 45.104a4.073 4.073 0 0 1 4.078-4.068h16.313zm50.422-27.574a4.085 4.085 0 0 1 5.767 0 4.06 4.06 0 0 1 0 5.753L65.045 30.72a4.068 4.068 0 0 1-2.884 1.192 4.07 4.07 0 0 1-2.883-1.192 4.06 4.06 0 0 1 0-5.752l11.535-11.507zM44.86 65.512c2.252 0 4.078 2.09 4.078 4.668v15.074c0 2.578-1.826 4.668-4.078 4.668-2.252 0-4.078-2.09-4.078-4.668V70.18c0-2.578 1.826-4.668 4.078-4.668zm-20.186-6.026a4.085 4.085 0 0 1 5.767 0 4.06 4.06 0 0 1 0 5.753L18.906 76.746a4.07 4.07 0 0 1-2.883 1.191 4.071 4.071 0 0 1-2.884-1.191 4.06 4.06 0 0 1 0-5.753l11.535-11.507zM44.86.356a4.073 4.073 0 0 1 4.078 4.068v16.272a4.073 4.073 0 0 1-4.078 4.068 4.073 4.073 0 0 1-4.078-4.068V4.424A4.073 4.073 0 0 1 44.86.356zM18.907 13.462L30.44 24.97a4.06 4.06 0 0 1 0 5.752 4.069 4.069 0 0 1-2.883 1.192 4.07 4.07 0 0 1-2.884-1.192L13.14 19.215a4.06 4.06 0 0 1 0-5.753 4.085 4.085 0 0 1 5.767 0z" fill-rule="nonzero"></path>
		</symbol>
	
		<symbol id="location_pin" viewBox="0 0 6 8">
			<defs><path id="200a" d="M6 3c0 2-3 5-3 5S0 5 0 3a3 3 0 1 1 6 0zM1 3a2 2 0 1 0 4 0 2 2 0 0 0-4 0z"></path></defs><use xlink:href="#200a"></use>
		</symbol>
	
		<symbol id="menu-burger" viewBox="0 0 8 7">
			<title>menu copy</title><path d="M0 0v1h8V0H0zm0 2.97v1h8v-1H0zm0 3v1h8v-1H0z" fill-rule="nonzero"></path>
		</symbol>
	
		<symbol id="message" viewBox="0 0 512 480">
			<title>check message</title><g fill-rule="nonzero"><path d="M511.609 181.601c-.001-.77-.173-1.933-.472-2.603a13.069 13.069 0 0 0-5.154-7.281l-73.292-50.948V66.153c0-7.24-5.872-13.112-13.112-13.112H335.26L263.517 3.163a13.104 13.104 0 0 0-14.935-.026l-72.206 49.904h-83.95c-7.242 0-13.112 5.872-13.112 13.112v53.973L5.666 171.027c-3.623 2.504-5.583 6.507-5.645 10.6-.004.077-.021.15-.021.23l.391 284.235a13.118 13.118 0 0 0 3.852 9.266 13.114 13.114 0 0 0 9.26 3.827h.018l485.385-.667c7.24-.01 13.104-5.889 13.094-13.13l-.391-283.787zm-78.919-28.893l41.898 29.118-41.898 29.128v-58.246zM256.015 29.884l33.31 23.156h-66.812l33.502-23.156zM105.538 79.265h300.928v149.921L305.43 299.428l-41.194-31.954c-.064-.05-.119-.081-.181-.126-4.604-3.454-11.116-3.581-15.894.126l-41.493 32.185-101.13-69.893V79.265zm-26.224 72.738v59.64l-43.146-29.819 43.146-29.821zm-53.056 54.864l158.669 109.655L26.578 439.346l-.32-232.479zm25.617 246.042l204.324-158.484L459.79 452.348l-407.915.561zm275.269-136.638L485.42 206.235l.32 233.059-158.596-123.023z"></path><path d="M344.77 131.713H167.234c-7.24 0-13.112 5.872-13.112 13.112s5.872 13.112 13.112 13.112H344.77c7.242 0 13.112-5.872 13.112-13.112s-5.87-13.112-13.112-13.112zM344.77 199.895H167.234c-7.24 0-13.112 5.872-13.112 13.112s5.872 13.112 13.112 13.112H344.77c7.242 0 13.112-5.872 13.112-13.112s-5.87-13.112-13.112-13.112z"></path></g>
		</symbol>
	
		<symbol id="new-cart" viewBox="0 0 16 15">
			<title>shopping-cart</title><g transform="translate(-.582)" fill-rule="evenodd"><path d="M12.582 11c-1.096 0-2 .885-2 2 0 1.096.885 2 2 2 1.096 0 2-.885 2-2-.02-1.096-.904-2-2-2zM15.995 2.64c-.036 0-.09-.017-.144-.017H4.534l-.18-1.22A1.616 1.616 0 0 0 2.756 0H1.3a.726.726 0 0 0-.719.728c0 .401.323.729.719.729h1.455c.09 0 .161.073.18.164l1.113 7.685c.144.966.97 1.694 1.94 1.694h7.473c.934 0 1.743-.674 1.94-1.603l1.168-5.919a.72.72 0 0 0-.575-.837zM8.58 12.913C8.54 11.85 7.633 11 6.551 11c-1.142.058-2.008.986-1.969 2.087A2 2 0 0 0 6.591 15h.04c1.122-.058 2.007-.986 1.948-2.087z"></path></g>
		</symbol>
	
		<symbol id="new-clock" viewBox="0 0 16 16">
			<title>clock-circular-outline</title><g transform="translate(.418)" fill-rule="evenodd"><path d="M7.635 0C3.425 0 0 3.425 0 7.635s3.425 7.635 7.635 7.635 7.635-3.425 7.635-7.635S11.845 0 7.635 0zm0 13.645a6.017 6.017 0 0 1-6.01-6.01 6.017 6.017 0 0 1 6.01-6.01 6.017 6.017 0 0 1 6.01 6.01 6.017 6.017 0 0 1-6.01 6.01z" fill-rule="nonzero"></path><path d="M11.614 7.4H8.183V3.273a.629.629 0 0 0-1.258 0v4.754c0 .347.282.628.629.628h4.06a.629.629 0 0 0 0-1.257z"></path></g>
		</symbol>
	
		<symbol id="new-email" viewBox="0 0 18 14">
			<defs><path id="250a" d="M1159.126 11.832v.107c0 .381-.15.806-.45 1.275-.301.468-.626.842-.974 1.12a1461.66 1461.66 0 0 0-3.887 3.074l-.34.286a10.7 10.7 0 0 1-.445.363 8.99 8.99 0 0 1-.431.306c-.178.12-.34.208-.49.266a1.15 1.15 0 0 1-.416.087h-.02a1.15 1.15 0 0 1-.416-.087 2.58 2.58 0 0 1-.49-.266 8.976 8.976 0 0 1-.43-.306 12.34 12.34 0 0 1-.446-.363l-.34-.286a1151.302 1151.302 0 0 0-3.886-3.074c-.95-.75-1.424-1.668-1.424-2.754 0-.084.03-.157.092-.218a.298.298 0 0 1 .218-.093h14.265c.052.03.097.038.136.025.039-.013.068.011.087.072.02.062.037.09.053.088.016-.004.026.037.03.12l.004.127v.13zm-.092 10.511a.298.298 0 0 1-.218.092h-14.265a.297.297 0 0 1-.218-.092.298.298 0 0 1-.093-.218v-7.447c.207.233.43.446.67.64a135.637 135.637 0 0 1 4.128 3.278c.33.278.597.494.804.65.207.155.486.311.838.47.352.158.683.237.994.237h.019c.31 0 .641-.079.993-.237.352-.159.632-.315.839-.47a19.1 19.1 0 0 0 .804-.65 135.55 135.55 0 0 1 4.128-3.278c.24-.194.462-.407.669-.64v7.447c0 .084-.03.157-.092.218zm.877-11.858a1.493 1.493 0 0 0-1.095-.455h-14.265c-.427 0-.792.152-1.096.455a1.493 1.493 0 0 0-.455 1.096v10.544c0 .426.152.79.455 1.095.304.303.67.455 1.096.455h14.265c.426 0 .791-.152 1.095-.455.304-.304.456-.669.456-1.095V11.58c0-.427-.152-.792-.456-1.096z"></path></defs><use xlink:href="#250a" transform="translate(-1143 -10)"></use>
		</symbol>
	
		<symbol id="new-heart" viewBox="0 0 15 13">
			<title>Path</title><path d="M14.603 4.137c0-2.093-1.674-3.79-3.739-3.79a3.722 3.722 0 0 0-3.183 1.811A3.723 3.723 0 0 0 4.496.348C2.431.347.758 2.043.758 4.137c0 1.14.498 2.159 1.283 2.853l5.298 5.37a.48.48 0 0 0 .683 0l5.298-5.37a3.798 3.798 0 0 0 1.283-2.854z" fill-rule="evenodd"></path>
		</symbol>
	
		<symbol id="new-phone" viewBox="0 0 16 17">
			<title>Path Copy</title><g transform="translate(.418)" fill-rule="evenodd"><path d="M11.783 10.918c-.506-.5-1.138-.5-1.641 0-.384.38-.768.761-1.145 1.148-.104.106-.19.129-.316.058-.249-.135-.513-.245-.752-.393-1.113-.7-2.045-1.6-2.87-2.613-.41-.503-.774-1.041-1.03-1.648-.05-.122-.041-.203.059-.303.384-.37.758-.751 1.135-1.132.526-.529.526-1.148-.003-1.68-.3-.303-.6-.6-.9-.903-.31-.31-.616-.623-.929-.93-.506-.493-1.138-.493-1.641.004-.387.38-.758.77-1.152 1.145a1.869 1.869 0 0 0-.587 1.261c-.06.803.136 1.561.413 2.3.568 1.528 1.432 2.886 2.48 4.13a15.348 15.348 0 0 0 5.083 3.978c.89.432 1.813.764 2.816.819.69.038 1.29-.136 1.77-.674.33-.368.7-.703 1.048-1.055.516-.522.52-1.155.007-1.67-.613-.617-1.229-1.23-1.845-1.842zM11.167 8.347l1.19-.203a5.319 5.319 0 0 0-1.487-2.87A5.29 5.29 0 0 0 7.84 3.76L7.67 4.958a4.104 4.104 0 0 1 2.348 1.17 4.104 4.104 0 0 1 1.148 2.22zM13.028 3.174A8.775 8.775 0 0 0 7.997.665l-.168 1.197a7.609 7.609 0 0 1 4.348 2.167 7.603 7.603 0 0 1 2.131 4.112l1.19-.203a8.84 8.84 0 0 0-2.47-4.764z"></path></g>
		</symbol>
	
		<symbol id="new-pin" viewBox="0 0 14 17">
			<title>Shape</title><path d="M6.728 0A6.295 6.295 0 0 0 .433 6.295c0 .266.02.526.053.783.538 4.917 5.833 9.585 5.833 9.585a.98.98 0 0 0 .273.218l.18.058.177-.056c.092-.05.183-.118.277-.22 0 0 5.219-4.678 5.744-9.596.032-.254.053-.511.053-.773A6.296 6.296 0 0 0 6.728 0zm0 10.345a4.054 4.054 0 0 1-4.05-4.05 4.054 4.054 0 0 1 4.05-4.05 4.053 4.053 0 0 1 4.048 4.05 4.053 4.053 0 0 1-4.048 4.05z" fill-rule="nonzero"></path>
		</symbol>
	
		<symbol id="new-user" viewBox="0 0 12 13">
			<title>user</title><g transform="translate(-.582)" fill-rule="evenodd"><circle cx="6.582" cy="3" r="3"></circle><path d="M6.582 7a6 6 0 0 0-6 6h12a6 6 0 0 0-6-6z"></path></g>
		</symbol>
	
		<symbol id="no_photo" viewBox="0 0 8 8">
			<defs><path id="300a" d="M8 0v8H0V0zM1 4l1-1 4 4h1V6L5 4l1-1 1 1V1H1z"></path></defs><use xlink:href="#300a"></use>
		</symbol>
	
		<symbol id="ok" viewBox="0 0 11 17">
			<title>ok</title><path d="M9.61 11.086c-.98.578-2.326.807-3.215.893l.746.684 2.726 2.533c.996.949-.625 2.433-1.633 1.517-.682-.644-1.682-1.574-2.725-2.543l-2.725 2.54c-1.007.912-2.629-.585-1.622-1.518.693-.644 1.683-1.573 2.726-2.532l.735-.684c-.878-.086-2.246-.302-3.236-.893C.223 10.386-.288 9.978.162 9.125c.265-.485.99-.893 1.95-.19 0 0 1.297.96 3.39.96s3.39-.96 3.39-.96c.96-.7 1.682-.295 1.95.19.443.853-.068 1.261-1.232 1.961zM.866 4.306C.866 1.925 2.948 0 5.498 0s4.633 1.925 4.633 4.305c0 2.37-2.082 4.295-4.633 4.295C2.948 8.6.866 6.675.866 4.305zm2.357 0c0 1.164 1.022 2.113 2.275 2.113 1.254 0 2.276-.949 2.276-2.114 0-1.175-1.022-2.124-2.276-2.124-1.253 0-2.275.95-2.275 2.124z" fill-rule="nonzero"></path>
		</symbol>
	
		<symbol id="path" viewBox="0 0 57 15">
			<title>Path</title><path d="M5.2 12.29c5.527-4.907 9.893-8.786 21.738-1.867 5.69 3.323 10.28 4.578 14.101 4.577 6.69 0 11.025-3.848 14.774-7.178 1.337-1.187 1.51-3.293.384-4.705-1.125-1.412-3.12-1.595-4.457-.406-5.526 4.908-9.892 8.786-21.74 1.866-15.652-9.14-22.983-2.63-28.873 2.6-1.336 1.188-1.51 3.294-.384 4.706 1.124 1.412 3.12 1.594 4.457.407z" fill-rule="evenodd"></path>
		</symbol>
	
		<symbol id="phone" viewBox="0 0 435 435">
			<defs><path id="330a" d="M365.35 271.76c-15.7-15.5-35.3-15.5-50.9 0-11.9 11.8-23.8 23.6-35.5 35.6-3.2 3.3-5.9 4-9.8 1.8-7.7-4.2-15.9-7.6-23.3-12.2-34.5-21.7-63.4-49.6-89-81-12.7-15.6-24-32.3-31.9-51.1-1.6-3.8-1.3-6.3 1.8-9.4 11.9-11.5 23.5-23.3 35.2-35.1 16.3-16.4 16.3-35.6-.1-52.1-9.3-9.4-18.6-18.6-27.9-28-9.6-9.6-19.1-19.3-28.8-28.8-15.7-15.3-35.3-15.3-50.9.1-12 11.8-23.5 23.9-35.7 35.5-11.3 10.7-17 23.8-18.2 39.1-1.9 24.9 4.2 48.4 12.8 71.3 17.6 47.4 44.4 89.5 76.9 128.1 43.9 52.2 96.3 93.5 157.6 123.3 27.6 13.4 56.2 23.7 87.3 25.4 21.4 1.2 40-4.2 54.9-20.9 10.2-11.4 21.7-21.8 32.5-32.7 16-16.2 16.1-35.8.2-51.8-19-19.1-38.1-38.1-57.2-57.1z"></path></defs><use xlink:href="#330a"></use>
		</symbol>
	
		<symbol id="product-amount-arrow" viewBox="0 0 6 10">
			<title>8:16:8:16</title><path d="M6 5l-6 5V0z" fill-rule="evenodd"></path>
		</symbol>
	
		<symbol id="ps" viewBox="0 0 89 18">
			<title>ps_logo</title><g fill-rule="nonzero"><path d="M21.124 4.001h-2.39a.702.702 0 0 0-.517.184.67.67 0 0 0-.217.494v7.643c0 .375.31.678.693.678a.685.685 0 0 0 .692-.678v-2.71h1.843a2.841 2.841 0 0 0 1.999-.856c.521-.537.8-1.257.771-1.997a2.756 2.756 0 0 0-.853-1.961A2.88 2.88 0 0 0 21.124 4zm1.53 2.792c.005.784-.626 1.43-1.426 1.464h-1.87v-2.92h1.87c.393-.014.773.138 1.045.416.273.278.411.656.381 1.04zM29.403 11.636h-3.16v-6.96c0-.374-.278-.676-.621-.676-.344 0-.622.302-.622.675v7.427c0 .574.274.898.74.898h3.638c.344 0 .622-.302.622-.675 0-.373-.278-.675-.622-.675l.025-.014zM45.28 10.833a.596.596 0 0 0-.438.188 2.798 2.798 0 0 1-1.853.688c-1.737 0-2.644-1.616-2.644-3.244 0-1.63.823-3.128 2.631-3.128a2.912 2.912 0 0 1 1.879.649.781.781 0 0 0 .502.201c.355 0 .643-.29.643-.649a.735.735 0 0 0-.283-.57A4.09 4.09 0 0 0 43.02 4C40.383 4 39 6.297 39 8.542 39 10.69 40.235 13 42.95 13a4.275 4.275 0 0 0 2.722-.973.756.756 0 0 0 .238-.584.606.606 0 0 0-.184-.443.595.595 0 0 0-.447-.167zM52.23 11.67h-3.839V9.03h3.172a.647.647 0 0 0 .522-.174.598.598 0 0 0 .181-.504.612.612 0 0 0-.187-.498.66.66 0 0 0-.516-.18H48.39V5.36h3.748a.647.647 0 0 0 .523-.174.598.598 0 0 0 .18-.504.605.605 0 0 0-.183-.501.654.654 0 0 0-.52-.178h-4.387a.717.717 0 0 0-.562.213.663.663 0 0 0-.184.554v7.463c0 .496.12.767.746.767h4.479c.478 0 .766-.244.766-.678.021-.157-.07-.652-.766-.652zM57.946 8.16c-.19-.085-.375-.17-.552-.26l-.348-.177c-.785-.392-1.529-.758-1.529-1.241.03-.64.58-1.144 1.249-1.143.639.003 1.258.21 1.76.588l.062.039c.148.114.328.184.518.202.377 0 .682-.292.682-.653a.94.94 0 0 0-.43-.699A4.329 4.329 0 0 0 56.972 4c-1.706 0-2.893 1.038-2.893 2.528 0 1.306 1.364 1.959 2.579 2.547.19.091.389.176.586.26.833.347 1.365.595 1.365 1.307s-.546 1.025-1.951 1.025a2.984 2.984 0 0 1-1.426-.385 1.048 1.048 0 0 0-.546-.17.611.611 0 0 0-.498.148.555.555 0 0 0-.184.466.8.8 0 0 0 .43.686 4.09 4.09 0 0 0 2.155.588C58.806 13 60 12.138 60 10.577s-1.085-1.98-2.054-2.417zM67.307 4.005h-5.635a.62.62 0 0 0-.49.182.633.633 0 0 0-.18.494.633.633 0 0 0 .18.495.62.62 0 0 0 .49.182h2.15v6.91a.68.68 0 0 0 .177.513.667.667 0 0 0 .494.217c.191.015.379-.06.51-.202a.64.64 0 0 0 .16-.529v-6.93h2.164a.606.606 0 0 0 .494-.176.62.62 0 0 0 .176-.5.626.626 0 0 0-.193-.492.613.613 0 0 0-.497-.164zM73.882 11.998l-2.615-7.326A.907.907 0 0 0 70.401 4a.907.907 0 0 0-.866.672l-2.47 7.34c-.036.097-.056.2-.06.304a.608.608 0 0 0 .145.482c.115.13.28.201.45.194a.764.764 0 0 0 .726-.602l.653-1.852h2.955l.797 2.028a.653.653 0 0 0 .654.433.578.578 0 0 0 .443-.178.62.62 0 0 0 .171-.458.913.913 0 0 0-.117-.365zm-2.4-2.811h-2.13l1.079-3.035 1.052 3.035zM80.335 9.296a2.757 2.757 0 0 0 1.594-3.145c-.3-1.287-1.484-2.187-2.828-2.15h-2.184c-.634 0-.917.318-.917 1.023v7.21c0 .678.476.766.69.766.42 0 .688-.284.688-.765V9.56h1.537l1.799 3.054a.69.69 0 0 0 .62.366.605.605 0 0 0 .455-.174.583.583 0 0 0 .172-.45 1.155 1.155 0 0 0-.138-.52l-1.488-2.54zm.29-2.512c.014.384-.13.758-.4 1.036a1.46 1.46 0 0 1-1.034.44h-1.847V5.335h1.847c.388-.002.761.151 1.033.424.271.274.418.643.407 1.025h-.007zM88.313 4.004h-5.641a.62.62 0 0 0-.49.182.633.633 0 0 0-.18.495.633.633 0 0 0 .18.494.62.62 0 0 0 .49.182h2.15v6.91a.681.681 0 0 0 .177.514.667.667 0 0 0 .494.217c.191.015.379-.06.51-.202a.64.64 0 0 0 .16-.529v-6.93h2.164a.606.606 0 0 0 .494-.177.62.62 0 0 0 .176-.5.626.626 0 0 0-.19-.489.613.613 0 0 0-.494-.167zM37.895 11.998L35.28 4.672A.907.907 0 0 0 34.414 4a.907.907 0 0 0-.866.672l-2.484 7.34a1.01 1.01 0 0 0-.059.304.608.608 0 0 0 .145.482c.115.13.28.201.45.194a.758.758 0 0 0 .726-.602l.653-1.852h2.955l.797 2.028a.653.653 0 0 0 .654.433.578.578 0 0 0 .443-.178.62.62 0 0 0 .171-.458.915.915 0 0 0-.104-.365zM35.496 9.18h-2.124l1.078-3.048 1.046 3.048zM11.87 2.129A6.827 6.827 0 0 0 7 0h-.06C3.136.017.05 3.137 0 7.014v9.819a.727.727 0 0 0 .231.546c.277.267.71.267.986 0l3.53-3.531c.701.167 1.414.277 2.131.329h.061c3.799-.063 6.865-3.185 6.933-7.058a7.067 7.067 0 0 0-2.002-4.99zM6.945 13.034H6.89a13.153 13.153 0 0 1-2.093-.34.703.703 0 0 0-.652.192l-3.08 3.103V7.02c.047-3.28 2.658-5.917 5.874-5.934h.037a5.778 5.778 0 0 1 4.133 1.806 5.977 5.977 0 0 1 1.674 4.221c-.084 3.246-2.654 5.853-5.838 5.921z"></path><path d="M8.418 4.345a.531.531 0 0 0-.626.259.554.554 0 0 0 .121.678A2.082 2.082 0 0 1 8.92 7.574a2.037 2.037 0 0 1-1.906 1.591 2.03 2.03 0 0 1-2.004-1.46 2.087 2.087 0 0 1 .858-2.355.55.55 0 0 0-.037-.946.527.527 0 0 0-.535.022c-1.19.75-1.74 2.221-1.34 3.589.399 1.367 1.648 2.292 3.047 2.256 1.4-.036 2.601-1.024 2.932-2.41.331-1.387-.29-2.828-1.517-3.516z"></path><path d="M6.872 3.557a.53.53 0 0 0-.379.16.552.552 0 0 0-.156.386v2.321c0 .302.24.546.535.546a.541.541 0 0 0 .536-.546V4.103a.541.541 0 0 0-.536-.546z"></path></g>
		</symbol>
	
		<symbol id="search" viewBox="0 0 9 9">
			<defs><path id="360a" d="M7 3.5c0 .61-.17 1.19-.44 1.69a1 1 0 0 1 .13.09l1.03 1a1.02 1.02 0 1 1-1.44 1.44l-1-1.03a1 1 0 0 1-.09-.13A3.5 3.5 0 1 1 7 3.5zM3.5.99A2.49 2.49 0 0 0 1 3.49c0 1.39 1.11 2.5 2.5 2.5.62 0 1.19-.22 1.63-.59a1 1 0 0 1 .25-.28 1 1 0 0 1 .06-.03l.03-.03C5.8 4.64 6 4.09 6 3.5 6 2.11 4.89 1 3.5 1z"></path></defs><use xlink:href="#360a"></use>
		</symbol>
	
		<symbol id="slider-arr" viewBox="0 0 6 12">
			<title>back</title><path d="M.778 6L5.905.58a.352.352 0 0 0 0-.48.308.308 0 0 0-.454 0L.095 5.76a.352.352 0 0 0 0 .481L5.45 11.9c.062.066.145.101.226.101.08 0 .164-.033.226-.1a.352.352 0 0 0 0-.48L.778 6z" fill-rule="evenodd"></path>
		</symbol>
	
		<symbol id="small_arrow" viewBox="0 0 6 9">
			<title>arrow slider</title><path d="M4.364 0L0 4.364l4.364 4.363L6 7.091 3.273 4.364 6 1.636z" fill-rule="nonzero"></path>
		</symbol>
	
		<symbol id="trash-icon" viewBox="0 0 19 20">
			<defs><path id="390a" d="M1199.8 410.72l-1.52-.06-.33 9.03 1.52.05z"></path><path id="391b" d="M1195.33 419.72v-9.03h1.53v9.03z"></path><path id="392c" d="M1194.23 419.69l-.33-9.03-1.52.06.33 9.02z"></path><path id="393d" d="M1200.83 421.95h-9.51l-1.19-13.5h11.89zM1187 406.92v1.53h1.59l1.26 14.33c.04.39.36.7.76.7h10.9c.4 0 .73-.31.77-.7l1.26-14.33h1.61v-1.53z"></path><path id="394e" d="M1198.58 404h-4.98c-.7 0-1.27.57-1.27 1.27v2.42h1.53v-2.16h4.47v2.16h1.53v-2.42c0-.7-.57-1.27-1.28-1.27z"></path></defs><g transform="translate(-1187 -404)"><use xlink:href="#390a"></use><use xlink:href="#391b"></use><use xlink:href="#392c"></use><use xlink:href="#393d"></use><use xlink:href="#394e"></use></g>
		</symbol>
	
		<symbol id="twitter" viewBox="0 0 17 14">
			<title>twitter</title><path d="M15.253 3.489c.01.153.01.306.01.46C15.263 8.618 11.758 14 5.35 14A9.748 9.748 0 0 1 0 12.414c.28.033.55.044.841.044a6.917 6.917 0 0 0 4.326-1.51 3.497 3.497 0 0 1-3.258-2.45c.216.033.432.055.658.055.313 0 .626-.044.917-.12A3.521 3.521 0 0 1 .69 4.966v-.044a3.472 3.472 0 0 0 1.575.448A3.543 3.543 0 0 1 .712 2.428c0-.656.172-1.258.475-1.783A9.86 9.86 0 0 0 8.37 4.342a4.042 4.042 0 0 1-.087-.81C8.284 1.587 9.838 0 11.768 0c1.004 0 1.91.427 2.546 1.116a6.802 6.802 0 0 0 2.211-.853 3.515 3.515 0 0 1-1.531 1.946A6.91 6.91 0 0 0 17 1.663a7.547 7.547 0 0 1-1.747 1.826z" fill-rule="nonzero"></path>
		</symbol>
	
		<symbol id="user" viewBox="0 0 8 8">
			<defs><path id="410a" d="M4 0C2.9 0 2 1.12 2 2.5S2.9 5 4 5s2-1.12 2-2.5S5.1 0 4 0zM1.91 5A2 2 0 0 0 0 7v1h8V7a2 2 0 0 0-1.91-2A2.8 2.8 0 0 1 4 6a2.8 2.8 0 0 1-2.09-1z"></path></defs><use xlink:href="#410a"></use>
		</symbol>
	
		<symbol id="vk" viewBox="0 0 17 10">
			<title>vk</title><path d="M16.613.678c.116-.39 0-.678-.562-.678h-1.859c-.473 0-.691.247-.808.522 0 0-.947 2.284-2.285 3.765-.432.429-.63.566-.868.566-.116 0-.296-.137-.296-.528V.678C9.935.21 9.802 0 9.41 0H6.488c-.296 0-.473.219-.473.422 0 .444.67.547.739 1.797V4.93c0 .594-.108.703-.344.703-.632 0-2.165-2.293-3.074-4.918C3.153.206 2.973 0 2.496 0H.637C.107 0 0 .247 0 .522c0 .487.631 2.91 2.938 6.11C4.475 8.815 6.64 10 8.61 10c1.184 0 1.329-.262 1.329-.716C9.938 7.197 9.83 7 10.424 7c.274 0 .748.138 1.852 1.19C13.54 9.44 13.747 10 14.454 10h1.859c.53 0 .798-.262.644-.781-.354-1.09-2.743-3.335-2.85-3.485-.275-.35-.196-.506 0-.818.003-.004 2.272-3.166 2.506-4.238z" fill-rule="nonzero"></path>
		</symbol>
	
		<symbol id="wallet" viewBox="0 0 986 728">
			<title>wallet</title><g fill-rule="nonzero"><path d="M60 727.55h799.8c33.101 0 60-26.9 60-60v-135.4H632.7c-21.5 0-42.5-4.199-62.2-12.6-19-8-36.1-19.6-50.7-34.199-14.6-14.6-26.2-31.701-34.2-50.701-8.3-19.7-12.6-40.7-12.6-62.2v-16.9c0-21.5 4.2-42.5 12.6-62.2 8-19 19.601-36.1 34.2-50.7 14.601-14.6 31.7-26.2 50.7-34.2 19.7-8.3 40.7-12.6 62.2-12.6h287.1V60.45c0-33.1-26.899-60-60-60H60c-33.1 0-60 26.9-60 60v607.1c0 33.099 26.9 60 60 60z"></path><path d="M986 300.85c0-24.9-20.1-45-45-45H632.7c-55.101 0-99.7 44.6-99.7 99.7v16.9c0 55.1 44.6 99.699 99.7 99.699H941c24.9 0 45-20.1 45-45V300.85zm-337 116.1c-29.3 0-53-23.699-53-53 0-29.3 23.7-53 53-53s53 23.7 53 53c0 29.301-23.7 53-53 53z"></path></g>
		</symbol>
	
		<symbol id="youtube" viewBox="0 0 17 12">
			<title>you</title><path d="M16.645 1.878a2.14 2.14 0 0 0-1.503-1.52C13.816 0 8.5 0 8.5 0S3.184 0 1.858.359A2.14 2.14 0 0 0 .355 1.878C0 3.218 0 6.012 0 6.012s0 2.795.355 4.135c.196.739.772 1.297 1.503 1.494C3.184 12 8.5 12 8.5 12s5.316 0 6.642-.359a2.108 2.108 0 0 0 1.503-1.494C17 8.807 17 6.012 17 6.012s0-2.795-.355-4.134zM6.76 8.55V3.475l4.444 2.537L6.76 8.55z" fill-rule="nonzero"></path>
		</symbol>
	
</svg>
