<svg xmlns="http://www.w3.org/2000/svg" xmlns:xlink="http://www.w3.org/1999/xlink" width="0" height="0" style="position:absolute">
	
		<symbol id="brands-title-icon" viewBox="0 0 32 34">
			<title>Group 12</title><g fill="none" fill-rule="evenodd"><path d="M1.492 27.865l15.935-7.616a.959.959 0 0 0 .572-.884V1.002a.954.954 0 0 0-.465-.857 1.01 1.01 0 0 0-.995-.027L1.502 7.302a2.542 2.542 0 0 0-1.5 2.286v17.393a.954.954 0 0 0 .471.879 1.01 1.01 0 0 0 1.019.005z" fill="#FFE000"></path><path d="M12.568 33.89l14.74-7.336c.367-.188.6-.564.604-.976L28 8.087a1.083 1.083 0 0 0-1.558-.976l-14.098 6.907A2.43 2.43 0 0 0 11 16.184v16.73a1.093 1.093 0 0 0 1.568.976z" fill="#055693"></path><path d="M24.545 33.88l5.72-2.916A3.203 3.203 0 0 0 32 28.117v-7.035a1.084 1.084 0 0 0-.497-.918c-.31-.198-.7-.218-1.028-.053l-5.72 2.856A3.204 3.204 0 0 0 23 25.883v7.054c.006.374.2.718.515.91a1.04 1.04 0 0 0 1.03.032z" fill="#156DBC"></path></g>
		</symbol>
	
		<symbol id="ps" viewBox="0 0 107 22">
			<title>ps_logo</title><g fill="none" fill-rule="evenodd"><path d="M25.127 10.318h-2.07V7.003l2.038.008c1.037 0 1.58.824 1.58 1.639 0 .7-.538 1.668-1.548 1.668zm-2.76-4.82c-.504 0-.806.298-.806.797v8.608c0 .476.282.76.755.76.464 0 .741-.284.741-.76v-3.07l2.076-.003c1.997-.01 3.076-1.666 3.076-3.22 0-1.745-1.412-3.113-3.215-3.113h-2.627zM31.532 14.158V6.242c0-.474-.282-.758-.754-.758-.465 0-.742.284-.742.758v8.402c0 .648.331 1.018.91 1.018h4.448c.473 0 .755-.283.755-.759 0-.466-.282-.745-.755-.745h-3.862zM53.482 13.54c-.477.478-1.379.813-2.194.813-2.053 0-3.128-1.909-3.128-3.793 0-1.777.975-3.688 3.115-3.688.727 0 1.722.26 2.22.762a.928.928 0 0 0 .595.236c.423 0 .742-.342.742-.797 0-.258-.116-.487-.333-.67-.895-.84-2.232-1.139-3.185-1.139-3.12 0-4.752 2.71-4.752 5.387 0 2.532 1.463 5.257 4.675 5.257 1.177 0 2.41-.438 3.22-1.148a.888.888 0 0 0 .285-.686c0-.453-.298-.758-.742-.758a.705.705 0 0 0-.518.224zM58.144 14.158V11.15h3.435c.473 0 .755-.274.755-.733 0-.483-.282-.771-.755-.771h-3.435V7.014h4.054c.472 0 .755-.279.755-.745 0-.475-.283-.759-.755-.759h-4.744c-.504 0-.805.323-.805.863V14.8c0 .559.128.862.805.862h4.847c.521 0 .832-.278.832-.746 0-.227-.081-.758-.832-.758h-4.157zM68.949 9.916l-.39-.205c-.878-.458-1.706-.89-1.706-1.455 0-.797.719-1.338 1.39-1.342h.02c.882 0 1.54.365 1.959.687l.066.043c.178.114.362.233.58.233.406 0 .737-.352.737-.784 0-.366-.249-.624-.476-.818-.202-.155-1.28-.93-2.678-.93-1.9 0-3.228 1.218-3.228 2.963 0 1.503 1.507 2.278 2.878 2.983.213.11.436.209.657.305.93.408 1.464.7 1.5 1.506.046 1.029-1.942 1.875-3.767.754-.204-.125-.412-.2-.61-.2-.453 0-.724.27-.724.72 0 .223.083.543.483.805.72.46 1.528.693 2.405.693 2.47 0 3.83-1.008 3.83-2.837 0-1.73-1.228-2.308-2.31-2.818-.21-.099-.419-.197-.616-.303zM74.13 5.553c-.504 0-.793.276-.793.759 0 .466.297.745.793.745h2.441v7.838c0 .515.287.822.768.822.464 0 .742-.307.742-.822V7.057h2.454c.481 0 .768-.279.768-.745 0-.476-.287-.76-.768-.76H74.13zM86.559 11.439H84.08l1.256-3.452 1.223 3.452zm-.224-5.107c-.18-.494-.538-.766-1.008-.766s-.828.272-1.01.769l-2.916 8.303a1.12 1.12 0 0 0-.066.347c0 .439.277.733.69.733.223 0 .63-.088.842-.679l.74-2.099h3.443l.932 2.285c.119.318.376.493.724.493.421 0 .715-.296.715-.72 0-.077-.009-.227-.07-.375l-3.016-8.291zM94.661 10.362h-2.036V7.057h2.037c1.15 0 1.58 1.005 1.58 1.639 0 .644-.43 1.666-1.58 1.666zm1.26 1.173c1.272-.514 1.855-1.813 1.855-2.878 0-1.505-1.127-3.104-3.217-3.104H92.14c-.7 0-1.012.357-1.012 1.158v8.14c0 .782.527.866.754.866.464 0 .742-.322.742-.861v-2.991h1.722l1.989 3.453a.72.72 0 0 0 .686.413c.413 0 .69-.284.69-.707 0-.187-.05-.387-.152-.591l-1.64-2.898zM99.83 5.553c-.504 0-.793.276-.793.759 0 .466.297.745.794.745h2.441v7.838c0 .515.287.822.768.822.464 0 .741-.307.741-.822V7.057h2.455c.48 0 .767-.279.767-.745 0-.476-.286-.76-.767-.76h-6.405zM42.688 11.406H40.21l1.256-3.451 1.222 3.451zM42.465 6.3c-.18-.494-.538-.766-1.009-.766-.47 0-.828.272-1.01.769l-2.915 8.302a1.101 1.101 0 0 0-.066.348c0 .438.277.732.69.732.223 0 .63-.088.842-.678l.74-2.1h3.443l.932 2.286c.118.317.375.492.724.492.42 0 .715-.296.715-.72 0-.076-.01-.226-.07-.374L42.464 6.3z" fill="#113820"></path><path d="M8.615 16.457c-.559-.006-1.719-.222-2.618-.424a.888.888 0 0 0-.814.234l-3.851 3.804C1.33 15.56 1.329 9.182 1.33 9.018c.045-4.038 3.34-7.323 7.343-7.323h.05c1.942.013 3.778.803 5.168 2.223 1.386 1.414 2.14 3.263 2.123 5.206-.035 3.974-3.393 7.333-7.333 7.333h-.066zM8.73.358h-.057C3.944.358.053 4.237.001 9.002c-.002.197 0 7.684 0 10.882v1.218c0 .254.102.488.285.659a.891.891 0 0 0 1.245-.015l4.413-4.356c.715.154 1.953.397 2.66.404h.077c4.654 0 8.621-3.966 8.662-8.66.02-2.298-.869-4.485-2.504-6.155C13.199 1.305 11.029.374 8.73.36z" fill="#9BBF2E"></path><path d="M10.01 5.627a.671.671 0 0 0-.454.837c.05.173.165.315.323.401A2.545 2.545 0 0 1 11.2 9.1a2.538 2.538 0 0 1-2.53 2.542A2.538 2.538 0 0 1 6.144 9.1c0-.875.44-1.679 1.177-2.148a.68.68 0 0 0 .207-.93.666.666 0 0 0-.925-.21 3.879 3.879 0 0 0-1.8 3.288c0 2.146 1.736 3.891 3.87 3.891 2.134 0 3.87-1.745 3.87-3.89a3.893 3.893 0 0 0-2.022-3.42.66.66 0 0 0-.51-.054z" fill="#9BBF2E"></path><path d="M7.92 5.418v2.86c0 .371.3.674.67.674.37 0 .671-.303.671-.675v-2.86c0-.371-.3-.674-.67-.674-.37 0-.67.303-.67.675z" fill="#9BBF2E"></path></g>
		</symbol>
	
</svg>
