<?xml version="1.0" encoding="UTF-8"?>
<svg width="287px" height="216px" viewBox="0 0 287 216" version="1.1" xmlns="http://www.w3.org/2000/svg" xmlns:xlink="http://www.w3.org/1999/xlink">
    <!-- Generator: Sketch 46.2 (44496) - http://www.bohemiancoding.com/sketch -->
    <title>subscribers</title>
    <desc>Created with Sketch.</desc>
    <defs></defs>
    <g id="Symbols" stroke="none" stroke-width="1" fill="none" fill-rule="evenodd">
        <g id="subscribers" fill-rule="nonzero" fill="#23AA10">
            <path d="M143.193,108.313 C168.297,108.313 187.822,82.276 187.822,55.323 L187.822,46.879 C187.822,19.927 168.297,0.803 143.193,0.803 C118.088,0.803 98.563,19.926 98.563,46.879 L98.563,55.323 C98.563,82.276 118.088,108.313 143.193,108.313 Z M53.779,117.03 C60.957,117.03 80.6,107.717 80.6,88.393 L80.6,74.074 C80.6,54.749 66.43,45.436 53.779,45.436 C41.548,45.436 26.959,54.749 26.959,74.074 L26.959,88.393 C26.959,107.717 46.983,117.03 53.779,117.03 Z M214.479,152.834 C214.465,152.694 214.423,152.561 214.409,152.422 C214.199,150.736 213.877,149.087 213.43,147.472 C213.43,147.457 213.43,147.444 213.416,147.43 C212.479,143.997 210.898,140.69 208.536,137.432 L208.536,137.418 C204.662,132.056 198.818,126.587 189.323,121.254 C184.303,118.435 182.093,117.143 178.99,117.143 C174.054,117.143 169.747,120.981 162.491,127.644 L162.476,127.644 L155.876,133.712 C155.638,133.937 148.522,143.99 143.194,143.99 C137.866,143.99 130.749,133.936 130.511,133.712 L123.911,127.644 L123.897,127.644 C116.641,120.981 112.334,117.143 107.398,117.143 C104.294,117.143 101.524,118.435 97.065,121.254 C87.859,127.065 81.724,132.049 77.866,137.403 L77.851,137.41 C77.837,137.424 77.837,137.446 77.824,137.458 C75.488,140.689 73.922,143.975 72.986,147.387 C72.973,147.415 72.957,147.45 72.946,147.484 C72.511,149.087 72.189,150.714 71.98,152.385 C71.966,152.54 71.924,152.686 71.909,152.84 C71.713,154.616 71.602,156.427 71.602,158.307 C71.602,158.516 71.598,197.502 71.602,197.684 C71.602,210.408 76.398,215.582 89.5,215.582 L196.89,215.582 C210.105,215.582 214.788,210.687 214.788,197.684 C214.792,197.502 214.787,158.516 214.787,158.307 C214.786,156.428 214.674,154.617 214.479,152.834 Z M232.764,117.03 C239.941,117.03 259.586,107.717 259.586,88.393 L259.586,74.074 C259.586,54.749 245.416,45.436 232.764,45.436 C220.532,45.436 205.943,54.749 205.943,74.074 L205.943,88.393 C205.943,107.717 225.967,117.03 232.764,117.03 Z M20.366,136.411 C3.711,145.892 0.006,161.008 0.006,170.838 C0.006,170.991 -0.008,188.597 0.006,188.736 C0.006,201.726 4.369,206.635 17.904,206.635 L53.701,206.635 C53.701,206.635 53.701,168.601 53.701,152.939 L44.752,143.99 C35.284,135.642 27.302,132.468 20.366,136.411 Z M53.701,152.939 C53.898,153.109 53.701,148.689 53.701,152.939 L53.701,152.939 Z M286.381,170.838 C286.381,161.007 282.675,145.891 266.021,136.411 C259.085,132.468 251.103,135.642 241.635,143.991 L232.686,152.94 C232.686,168.601 232.686,206.636 232.686,206.636 L268.483,206.636 C282.018,206.636 286.381,201.727 286.381,188.737 C286.395,188.597 286.381,170.992 286.381,170.838 Z M232.685,152.939 C232.685,148.689 232.489,153.109 232.685,152.939 L232.685,152.939 Z" id="Shape"></path>
        </g>
    </g>
</svg>