<?xml version="1.0" encoding="UTF-8"?>
<svg width="65px" height="30px" viewBox="0 0 65 30" version="1.1" xmlns="http://www.w3.org/2000/svg" xmlns:xlink="http://www.w3.org/1999/xlink">
    <!-- Generator: Sketch 52 (66869) - http://www.bohemiancoding.com/sketch -->
    <title>Group 3</title>
    <desc>Created with Sketch.</desc>
    <g id="Page-1" stroke="none" stroke-width="1" fill="none" fill-rule="evenodd">
        <g id="Catalog-Copy" transform="translate(-1480.000000, -346.000000)" fill="#F0F0F0">
            <g id="Group-3" transform="translate(1480.000000, 346.000000)">
                <path d="M-5.04485342e-13,3.9992748 C-5.04485342e-13,1.79053632 1.78679466,0 3.9992748,0 L26.0007252,0 C28.2094637,0 30,1.78679466 30,3.9992748 L30,26.0007252 C30,28.2094637 28.2132053,30 26.0007252,30 L3.9992748,30 C1.79053632,30 -5.04485342e-13,28.2132053 -5.04485342e-13,26.0007252 L-5.04485342e-13,3.9992748 Z" id="BG-Copy-40"></path>
                <path d="M35,3.9992748 C35,1.79053632 36.7867947,0 38.9992748,0 L61.0007252,0 C63.2094637,0 65,1.78679466 65,3.9992748 L65,26.0007252 C65,28.2094637 63.2132053,30 61.0007252,30 L38.9992748,30 C36.7905363,30 35,28.2132053 35,26.0007252 L35,3.9992748 Z" id="BG-Copy-40"></path>
            </g>
        </g>
    </g>
</svg>