<svg xmlns="http://www.w3.org/2000/svg" xmlns:xlink="http://www.w3.org/1999/xlink" width="9" height="6" viewBox="0 0 9 6"><defs><path id="aqgya" d="M1.34 1a.5.5 0 0 1 .05 0 .5.5 0 0 1 .09 0h2a.5.5 0 0 1 .44.28L4.3 2h4.44c.14 0 .2.12.16.25l-.81 2.5a.4.4 0 0 1-.34.25h-3.5a.4.4 0 0 1-.34-.25l-.82-2.5-.1-.25H1.5a.5.5 0 0 1-.15-1zm0 0h-.01zM5 6.5a.5.5 0 0 1-.5.5.5.5 0 0 1-.5-.5c0-.28.22-.5.5-.5s.5.22.5.5zm3 0a.5.5 0 0 1-.5.5.5.5 0 0 1-.5-.5c0-.28.22-.5.5-.5s.5.22.5.5z"/></defs><g><g transform="translate(0 -1)"><use fill="#fff" xlink:href="#aqgya"/></g></g></svg>