<?xml version="1.0" encoding="UTF-8"?>
<svg width="443px" height="340px" viewBox="0 0 443 340" version="1.1" xmlns="http://www.w3.org/2000/svg" xmlns:xlink="http://www.w3.org/1999/xlink">
    <!-- Generator: Sketch 46.2 (44496) - http://www.bohemiancoding.com/sketch -->
    <title>check</title>
    <desc>Created with Sketch.</desc>
    <defs></defs>
    <g id="Symbols" stroke="none" stroke-width="1" fill="none" fill-rule="evenodd">
        <g id="check" fill-rule="nonzero" fill="#FFFFFF">
            <path d="M434.539,47.499 L395.711,8.671 C390.387,3.343 383.912,0.678 376.301,0.678 C368.683,0.678 362.208,3.343 356.884,8.671 L169.59,196.248 L85.651,112.023 C80.321,106.693 73.85,104.031 66.239,104.031 C58.623,104.031 52.152,106.693 46.822,112.023 L7.994,150.852 C2.664,156.181 0,162.654 0,170.269 C0,177.878 2.664,184.357 7.994,189.685 L111.345,293.034 L150.176,331.862 C155.503,337.194 161.976,339.856 169.59,339.856 C177.201,339.856 183.674,337.187 189.004,331.862 L227.834,293.034 L434.539,86.33 C439.864,81 442.533,74.528 442.533,66.913 C442.537,59.302 439.864,52.829 434.539,47.499 Z" id="Shape"></path>
        </g>
    </g>
</svg>