<?xml version="1.0" encoding="UTF-8"?>
<svg width="526px" height="383px" viewBox="0 0 526 383" version="1.1" xmlns="http://www.w3.org/2000/svg" xmlns:xlink="http://www.w3.org/1999/xlink">
    <!-- Generator: Sketch 46.2 (44496) - http://www.bohemiancoding.com/sketch -->
    <title>delivery</title>
    <desc>Created with Sketch.</desc>
    <defs></defs>
    <g id="Symbols" stroke="none" stroke-width="1" fill="none" fill-rule="evenodd">
        <g id="delivery" fill-rule="nonzero" fill="#0275D8">
            <path d="M453.557,96.119 L381.939,96.119 L381.939,0.629 L47.745,0.629 C21.487,0.629 0,22.138 0,48.374 L0,310.95 L47.745,310.95 C47.745,350.577 79.736,382.524 119.341,382.524 C158.99,382.524 190.959,350.555 190.959,310.95 L334.172,310.95 C334.172,350.577 366.163,382.524 405.79,382.524 C445.417,382.524 477.386,350.555 477.386,310.95 L525.153,310.95 L525.153,191.587 L453.557,96.119 Z M119.341,346.77 C99.538,346.77 83.543,330.753 83.543,310.95 C83.543,291.125 99.516,275.13 119.341,275.13 C139.166,275.13 155.161,291.103 155.161,310.95 C155.161,330.731 139.165,346.77 119.341,346.77 Z M441.609,131.917 L488.391,191.587 L381.917,191.587 L381.917,131.917 L441.609,131.917 L441.609,131.917 Z M405.812,346.77 C385.987,346.77 369.992,330.753 369.992,310.95 C369.992,291.125 385.965,275.13 405.812,275.13 C425.615,275.13 441.61,291.103 441.61,310.95 C441.609,330.731 425.614,346.77 405.812,346.77 Z" id="Shape"></path>
        </g>
    </g>
</svg>