<?xml version="1.0" encoding="UTF-8"?>
<svg width="90px" height="90px" viewBox="0 0 90 90" version="1.1" xmlns="http://www.w3.org/2000/svg" xmlns:xlink="http://www.w3.org/1999/xlink">
    <!-- Generator: Sketch 52 (66869) - http://www.bohemiancoding.com/sketch -->
    <title>preloader</title>
    <desc>Created with Sketch.</desc>
    <g id="preloader" stroke="none" stroke-width="1" fill="none" fill-rule="evenodd">
        <g transform="translate(45.000000, 45.000000) rotate(360.000000) translate(-45.000000, -45.000000) " fill="" fill-rule="nonzero" id="Combined-Shape">
            <path d="M85.6413084,41.0358439 C87.8938318,41.0358439 89.719486,42.8573659 89.719486,45.1038537 C89.719486,47.3503415 87.8934112,49.1718634 85.6413084,49.1718634 L69.3285981,49.1718634 C67.0764953,49.1718634 65.2504206,47.3503415 65.2504206,45.1038537 C65.2504206,42.8573659 67.0764953,41.0358439 69.3285981,41.0358439 L85.6413084,41.0358439 Z M20.3908879,41.0358439 C22.6429907,41.0358439 24.4690654,42.8573659 24.4690654,45.1038537 C24.4690654,47.3503415 22.6429907,49.1718634 20.3908879,49.1718634 L4.07817757,49.1718634 C1.82607477,49.1718634 0,47.3503415 0,45.1038537 C0,42.8573659 1.82607477,41.0358439 4.07817757,41.0358439 L20.3908879,41.0358439 Z M70.8131776,13.4621463 C72.4058411,11.8734537 74.9880841,11.8734537 76.5803271,13.4621463 C78.1729907,15.050839 78.1729907,17.6266439 76.5803271,19.2149171 L65.0451869,30.7212976 C64.2490654,31.5162732 63.2052336,31.9131317 62.1614019,31.9131317 C61.1179907,31.9131317 60.0741589,31.5158537 59.2780374,30.7212976 C57.6853738,29.1326049 57.6853738,26.5568 59.2780374,24.9685268 L70.8131776,13.4621463 Z M44.8599533,65.5119122 C47.1120561,65.5119122 48.9381308,67.6021373 48.9381308,70.1800175 L48.9381308,85.2538068 C48.9381308,87.8316869 47.1120561,89.921912 44.8599533,89.921912 C42.6078505,89.921912 40.7817757,87.8316869 40.7817757,85.2538068 L40.7817757,70.1800175 C40.7817757,67.6021373 42.6078505,65.5119122 44.8599533,65.5119122 Z M24.6738785,59.4864098 C26.2665421,57.8977171 28.848785,57.8977171 30.441028,59.4864098 C32.0336916,61.0751024 32.0336916,63.6504878 30.441028,65.2391805 L18.9063084,76.745561 C18.1106075,77.5396976 17.0667757,77.9369756 16.0229439,77.9369756 C14.9791121,77.9369756 13.9352804,77.5396976 13.1391589,76.745561 C11.5464953,75.1568683 11.5464953,72.5814829 13.1391589,70.9927902 L24.6738785,59.4864098 Z M44.8599533,0.355746341 C47.1120561,0.355746341 48.9381308,2.17726829 48.9381308,4.4237561 L48.9381308,20.6957951 C48.9381308,22.9422829 47.1120561,24.7638049 44.8599533,24.7638049 C42.6078505,24.7638049 40.7817757,22.9422829 40.7817757,20.6957951 L40.7817757,4.4237561 C40.7817757,2.17726829 42.6078505,0.355746341 44.8599533,0.355746341 Z M18.906729,13.4621463 L30.4414486,24.9685268 C32.0341121,26.5572195 32.0341121,29.1330244 30.4414486,30.7212976 C29.6457477,31.5158537 28.6014953,31.9131317 27.5580841,31.9131317 C26.5142523,31.9131317 25.4704206,31.5158537 24.6742991,30.7212976 L13.1395794,19.2149171 C11.5469159,17.6262244 11.5469159,15.050839 13.1395794,13.4621463 C14.732243,11.8734537 17.314486,11.8734537 18.906729,13.4621463 Z"></path>
        </g>
    </g>
</svg>