<?xml version="1.0" encoding="UTF-8"?>
<svg width="512px" height="480px" viewBox="0 0 512 480" version="1.1" xmlns="http://www.w3.org/2000/svg" xmlns:xlink="http://www.w3.org/1999/xlink">
    <!-- Generator: Sketch 46.2 (44496) - http://www.bohemiancoding.com/sketch -->
    <title>check message</title>
    <desc>Created with Sketch.</desc>
    <defs></defs>
    <g id="Symbols" stroke="none" stroke-width="1" fill="none" fill-rule="evenodd">
        <g id="check-message" fill-rule="nonzero" fill="#E6007E">
            <path d="M511.609,181.601 C511.608,180.831 511.436,179.668 511.137,178.998 C510.35,176.144 508.601,173.537 505.983,171.717 L432.691,120.769 L432.691,66.153 C432.691,58.913 426.819,53.041 419.579,53.041 L335.26,53.041 L263.517,3.163 C259.033,0.042 253.08,0.029 248.582,3.137 L176.376,53.041 L92.426,53.041 C85.184,53.041 79.314,58.913 79.314,66.153 L79.314,120.126 L5.666,171.027 C2.043,173.531 0.083,177.534 0.021,181.627 C0.017,181.704 0,181.777 0,181.857 L0.391,466.092 C0.396,469.569 1.782,472.902 4.243,475.358 C6.701,477.809 10.031,479.185 13.503,479.185 C13.51,479.185 13.515,479.185 13.521,479.185 L498.906,478.518 C506.146,478.508 512.01,472.629 512,465.388 L511.609,181.601 Z M432.69,152.708 L474.588,181.826 L432.69,210.954 L432.69,152.708 Z M256.015,29.884 L289.325,53.04 L222.513,53.04 L256.015,29.884 Z M105.538,79.265 L406.466,79.265 L406.466,229.186 L305.43,299.428 L264.236,267.474 C264.172,267.424 264.117,267.393 264.055,267.348 C259.451,263.894 252.939,263.767 248.161,267.474 L206.668,299.659 L105.538,229.766 L105.538,79.265 Z M79.314,152.003 L79.314,211.643 L36.168,181.824 L79.314,152.003 Z M26.258,206.867 L184.927,316.522 L26.578,439.346 L26.258,206.867 Z M51.875,452.909 L256.199,294.425 L459.79,452.348 L51.875,452.909 Z M327.144,316.271 L485.42,206.235 L485.74,439.294 L327.144,316.271 Z" id="Shape"></path>
            <path d="M344.77,131.713 L167.234,131.713 C159.994,131.713 154.122,137.585 154.122,144.825 C154.122,152.065 159.994,157.937 167.234,157.937 L344.77,157.937 C352.012,157.937 357.882,152.065 357.882,144.825 C357.882,137.585 352.012,131.713 344.77,131.713 Z" id="Shape"></path>
            <path d="M344.77,199.895 L167.234,199.895 C159.994,199.895 154.122,205.767 154.122,213.007 C154.122,220.247 159.994,226.119 167.234,226.119 L344.77,226.119 C352.012,226.119 357.882,220.247 357.882,213.007 C357.882,205.767 352.012,199.895 344.77,199.895 Z" id="Shape"></path>
        </g>
    </g>
</svg>