<?xml version="1.0" encoding="UTF-8"?>
<svg width="16px" height="17px" viewBox="0 0 16 17" version="1.1" xmlns="http://www.w3.org/2000/svg" xmlns:xlink="http://www.w3.org/1999/xlink">
    <!-- Generator: Sketch 52 (66869) - http://www.bohemiancoding.com/sketch -->
    <title>Path Copy</title>
    <desc>Created with Sketch.</desc>
    <g id="Website" stroke="none" stroke-width="1" fill="none" fill-rule="evenodd">
        <g id="komsis01_main-copy" transform="translate(-1189.000000, -86.000000)" fill="#C3C3C3">
            <g id="Header">
                <g id="telephone" transform="translate(1189.417940, 55.000000)">
                    <g id="Path-Copy" transform="translate(0.000000, 31.000000)">
                        <path d="M11.7831464,10.9178626 C11.2768007,10.4179672 10.644675,10.4179672 10.1415545,10.9178626 C9.75776389,11.2984281 9.37397326,11.6789936 8.99663289,12.0660094 C8.89342869,12.1724387 8.80635014,12.1950146 8.68057002,12.1240617 C8.4322349,11.9886062 8.16777413,11.8789517 7.92911441,11.7305957 C6.8164441,11.0307422 5.88438114,10.1309305 5.05874752,9.11823931 C4.64915584,8.61511882 4.284716,8.07652188 4.02993062,7.47019719 C3.97832852,7.3476422 3.98800391,7.26701392 4.08798298,7.16703484 C4.47177361,6.79614474 4.84588885,6.41557924 5.22322922,6.03501374 C5.74892563,5.5060922 5.74892563,4.88686698 5.22000409,4.35472031 C4.92006687,4.05155797 4.62012966,3.75484588 4.32019244,3.45168354 C4.01057983,3.14207093 3.70419235,2.82923319 3.39135461,2.52284571 C2.88500899,2.02940061 2.25288325,2.02940061 1.74976276,2.52607084 C1.362747,2.90663634 0.991856894,3.29687723 0.59839087,3.67099247 C0.233951028,4.01608152 0.0501185411,4.43857373 0.011416965,4.93201882 C-0.0498605306,5.73507653 0.146872481,6.49298239 0.424233777,7.23153747 C0.991856894,8.76024973 1.85619209,10.11803 2.90435978,11.3629307 C4.32019244,13.0464493 6.01016126,14.3784285 7.98716678,15.3395177 C8.87730303,15.7716853 9.79969059,16.1038738 10.8027064,16.158701 C11.4928845,16.1974026 12.092759,16.0232455 12.5733036,15.4846486 C12.9022669,15.1169836 13.2731571,14.7815699 13.6214712,14.4300306 C14.1374923,13.9075594 14.1407174,13.2754336 13.6279215,12.7594126 C13.0151465,12.1434125 12.3991465,11.5306376 11.7831464,10.9178626 Z"></path>
                        <path d="M11.1671463,8.34743292 L12.3572198,8.14424964 C12.1701621,7.05093012 11.6541411,6.06081479 10.8704342,5.27388275 C10.0415754,4.44502399 8.99340776,3.92255271 7.83881074,3.76129615 L7.67110391,4.95781987 C8.56446529,5.0836 9.37719839,5.48674141 10.0189995,6.12854255 C10.6253242,6.73486724 11.0220154,7.5024485 11.1671463,8.34743292 Z" id="Path-Copy-2"></path>
                        <path d="M13.0280471,3.17432224 C11.6541411,1.80041629 9.91579532,0.932855956 7.99684217,0.665170055 L7.82913534,1.86169378 C9.48685285,2.09390324 10.9897641,2.84535884 12.1766124,4.02898205 C13.3021832,5.15455289 14.0407383,6.57683581 14.3084242,8.14102451 L15.4984977,7.93784124 C15.1856599,6.12531742 14.3310001,4.48050043 13.0280471,3.17432224 Z" id="Path-Copy-3"></path>
                    </g>
                </g>
            </g>
        </g>
    </g>
</svg>