<?xml version="1.0" encoding="UTF-8"?>
<svg width="15px" height="13px" viewBox="0 0 15 13" version="1.1" xmlns="http://www.w3.org/2000/svg" xmlns:xlink="http://www.w3.org/1999/xlink">
    <!-- Generator: Sketch 52 (66869) - http://www.bohemiancoding.com/sketch -->
    <title>Path</title>
    <desc>Created with Sketch.</desc>
    <g id="Website" stroke="none" stroke-width="1" fill="none" fill-rule="evenodd">
        <g id="komsis01_main-copy" transform="translate(-1231.000000, -140.000000)" fill="#FFE000">
            <g id="Header">
                <g id="valentines-heart" transform="translate(1231.417940, 140.000000)">
                    <path d="M14.1855255,4.13748561 C14.1855255,2.04429849 12.5114963,0.347496961 10.4465053,0.347496961 C9.09810435,0.347496961 7.92052612,1.07338734 7.26266606,2.15820665 C6.6048903,1.07338734 5.42680627,0.347496961 4.0784334,0.347496961 C2.01344239,0.347496961 0.339890907,2.04429849 0.339890907,4.13748561 C0.339890907,5.27710845 0.838084108,6.29667054 1.62326739,6.99097199 L6.92147018,12.3617462 C7.01195368,12.4534652 7.13466843,12.504993 7.26266606,12.504993 C7.39066369,12.504993 7.51337844,12.4534652 7.60386195,12.3617462 L12.9020647,6.99097199 C13.6872761,6.29667054 14.1855255,5.27710845 14.1855255,4.13748561 Z" id="Path"></path>
                </g>
            </g>
        </g>
    </g>
</svg>