<svg xmlns="http://www.w3.org/2000/svg" xmlns:xlink="http://www.w3.org/1999/xlink" width="18" height="14" viewBox="0 0 18 14"><defs><path id="y04ma" d="M1159.126 11.832v.107c0 .381-.15.806-.45 1.275-.301.468-.626.842-.974 1.12a1461.66 1461.66 0 0 0-3.887 3.074l-.34.286c-.186.158-.335.28-.445.363a8.99 8.99 0 0 1-.431.306c-.178.12-.34.208-.49.266a1.15 1.15 0 0 1-.416.087h-.02a1.15 1.15 0 0 1-.416-.087 2.58 2.58 0 0 1-.49-.266 8.976 8.976 0 0 1-.43-.306 12.34 12.34 0 0 1-.446-.363l-.34-.286c-1.343-1.067-2.639-2.092-3.886-3.074-.95-.75-1.424-1.668-1.424-2.754 0-.084.03-.157.092-.218a.298.298 0 0 1 .218-.093h14.265c.052.03.097.038.136.025.039-.013.068.011.087.072.02.062.037.09.053.088.016-.004.026.037.03.12l.004.127v.13zm-.092 10.511a.298.298 0 0 1-.218.092h-14.265a.297.297 0 0 1-.218-.092.298.298 0 0 1-.093-.218v-7.447c.207.233.43.446.67.64a135.637 135.637 0 0 1 4.128 3.278c.33.278.597.494.804.65.207.155.486.311.838.47.352.158.683.237.994.237h.019c.31 0 .641-.079.993-.237.352-.159.632-.315.839-.47a19.1 19.1 0 0 0 .804-.65 135.55 135.55 0 0 1 4.128-3.278c.24-.194.462-.407.669-.64v7.447c0 .084-.03.157-.092.218zm.877-11.858a1.493 1.493 0 0 0-1.095-.455h-14.265c-.427 0-.792.152-1.096.455a1.493 1.493 0 0 0-.455 1.096v10.544c0 .426.152.79.455 1.095.304.303.67.455 1.096.455h14.265c.426 0 .791-.152 1.095-.455.304-.304.456-.669.456-1.095V11.58c0-.427-.152-.792-.456-1.096z"/></defs><g><g transform="translate(-1143 -10)"><g><use fill="#c3c3c3" xlink:href="#y04ma"/></g></g></g></svg>