<?xml version="1.0" encoding="UTF-8"?>
<svg width="16px" height="15px" viewBox="0 0 16 15" version="1.1" xmlns="http://www.w3.org/2000/svg" xmlns:xlink="http://www.w3.org/1999/xlink">
    <!-- Generator: Sketch 52 (66869) - http://www.bohemiancoding.com/sketch -->
    <title>shopping-cart</title>
    <desc>Created with Sketch.</desc>
    <g id="Website" stroke="none" stroke-width="1" fill="none" fill-rule="evenodd">
        <g id="komsis03_card_a" transform="translate(-1410.000000, -139.000000)" fill="#156DBC">
            <g id="Header">
                <g id="shopping-cart" transform="translate(1409.417940, 139.000000)">
                    <path d="M12.5820602,11 C11.4859064,11 10.5820602,11.8846154 10.5820602,13 C10.5820602,14.0961538 11.4666756,15 12.5820602,15 C13.6782141,15 14.5820602,14.1153846 14.5820602,13 C14.5628295,11.9038462 13.6782141,11 12.5820602,11 Z" id="Path"></path>
                    <path d="M15.9949848,2.64072848 C15.9590572,2.64072848 15.9051659,2.62251656 15.8512745,2.62251656 L4.53409216,2.62251656 L4.35445435,1.40231788 C4.24667166,0.600993377 3.56404796,0 2.75567779,0 L1.30061149,0 C0.905408295,0 0.582060227,0.32781457 0.582060227,0.728476821 C0.582060227,1.12913907 0.905408295,1.45695364 1.30061149,1.45695364 L2.75567779,1.45695364 C2.8454967,1.45695364 2.91735183,1.52980132 2.93531561,1.62086093 L4.04907006,9.30629139 C4.19278031,10.2715232 5.01911427,11 5.98915847,11 L13.4620916,11 C14.3962082,11 15.2045784,10.3261589 15.40218,9.39735099 L16.5698258,3.47847682 C16.6416809,3.09602649 16.390188,2.71357616 15.9949848,2.64072848 Z" id="Path"></path>
                    <path d="M8.5792701,12.9130435 C8.53990144,11.8502415 7.63442213,11 6.55178382,11 C5.41009251,11.057971 4.54398187,11.9855072 4.58335053,13.0869565 C4.6227192,14.1497585 5.50851418,15 6.59115248,15 L6.63052115,15 C7.75252812,14.942029 8.6383231,14.0144928 8.5792701,12.9130435 Z" id="Path"></path>
                </g>
            </g>
        </g>
    </g>
</svg>