<?xml version="1.0" encoding="UTF-8"?>
<svg width="14px" height="17px" viewBox="0 0 14 17" version="1.1" xmlns="http://www.w3.org/2000/svg" xmlns:xlink="http://www.w3.org/1999/xlink">
    <!-- Generator: Sketch 52 (66869) - http://www.bohemiancoding.com/sketch -->
    <title>Shape</title>
    <desc>Created with Sketch.</desc>
    <g id="Website" stroke="none" stroke-width="1" fill="none" fill-rule="evenodd">
        <g id="komsis01_main-copy" transform="translate(-840.000000, -55.000000)" fill="#C3C3C3" fill-rule="nonzero">
            <g id="Header">
                <g id="map-pin-silhouette" transform="translate(840.417940, 55.000000)">
                    <path d="M6.30992036,0 C2.83325088,0 0.0146281874,2.81862269 0.0146281874,6.29525523 C0.0146281874,6.56140698 0.0359794307,6.82079873 0.0685234537,7.07793714 C0.6064418,11.9953723 5.90114379,16.6629083 5.90114379,16.6629083 C5.99548821,16.7684825 6.08643416,16.8336075 6.17401859,16.8807427 L6.35483924,16.9391447 L6.53115323,16.8829961 C6.62324432,16.8335705 6.71422721,16.765084 6.80853469,16.6629083 C6.80853469,16.6629083 12.026882,11.9852507 12.5524255,7.06674436 C12.5838613,6.81296747 12.6052125,6.55579212 12.6052125,6.29414704 C12.6040674,2.81862269 9.78658985,0 6.30992036,0 Z M6.30992036,10.3446404 C4.07749643,10.3446404 2.26057212,8.52771611 2.26057212,6.29529217 C2.26057212,4.06286824 4.07749643,2.24594393 6.30992036,2.24594393 C8.5423443,2.24594393 10.3581604,4.06286824 10.3581604,6.29529217 C10.3581604,8.52771611 8.5423443,10.3446404 6.30992036,10.3446404 Z" id="Shape"></path>
                </g>
            </g>
        </g>
    </g>
</svg>