<?xml version="1.0" encoding="UTF-8"?>
<svg width="16px" height="16px" viewBox="0 0 16 16" version="1.1" xmlns="http://www.w3.org/2000/svg" xmlns:xlink="http://www.w3.org/1999/xlink">
    <!-- Generator: Sketch 52 (66869) - http://www.bohemiancoding.com/sketch -->
    <title>clock-circular-outline</title>
    <desc>Created with Sketch.</desc>
    <g id="Website" stroke="none" stroke-width="1" fill="none" fill-rule="evenodd">
        <g id="komsis01_main-copy" transform="translate(-1300.000000, -8.000000)" fill="#C3C3C3">
            <g id="Header">
                <g id="clock-circular-outline" transform="translate(1300.417940, 8.000000)">
                    <path d="M7.63479314,0 C3.42497009,0 0,3.42497009 0,7.63479314 C0,11.8446162 3.42497009,15.2695863 7.63479314,15.2695863 C11.8446162,15.2695863 15.2695863,11.8446162 15.2695863,7.63479314 C15.2695863,3.42497009 11.8446162,0 7.63479314,0 Z M7.63479314,13.6450318 C4.32077744,13.6450318 1.62439732,10.948966 1.62439732,7.63479314 C1.62439732,4.32062028 4.32077744,1.62455448 7.63479314,1.62455448 C10.9488088,1.62455448 13.645189,4.32062028 13.645189,7.63479314 C13.645189,10.948966 10.9488088,13.6450318 7.63479314,13.6450318 Z" id="Shape" fill-rule="nonzero"></path>
                    <path d="M11.6137494,7.39905437 L8.18265006,7.39905437 L8.18265006,3.2736258 C8.18265006,2.92646116 7.90117796,2.64498906 7.55401332,2.64498906 C7.20684869,2.64498906 6.92537659,2.92646116 6.92537659,3.2736258 L6.92537659,8.0276911 C6.92537659,8.37485574 7.20684869,8.65632784 7.55401332,8.65632784 L11.6137494,8.65632784 C11.960914,8.65632784 12.2423861,8.37485574 12.2423861,8.0276911 C12.2423861,7.68052647 11.960914,7.39905437 11.6137494,7.39905437 Z" id="Path"></path>
                </g>
            </g>
        </g>
    </g>
</svg>