<?xml version="1.0" encoding="UTF-8"?>
<svg width="11px" height="17px" viewBox="0 0 11 17" version="1.1" xmlns="http://www.w3.org/2000/svg" xmlns:xlink="http://www.w3.org/1999/xlink">
    <!-- Generator: Sketch 46.2 (44496) - http://www.bohemiancoding.com/sketch -->
    <title>ok</title>
    <desc>Created with Sketch.</desc>
    <defs></defs>
    <g id="Symbols" stroke="none" stroke-width="1" fill="none" fill-rule="evenodd">
        <g id="ok" fill-rule="nonzero" fill="#999999">
            <path d="M9.60950795,11.0863925 C8.63085417,11.6639471 7.28431229,11.8929774 6.39495175,11.9792787 L7.14144313,12.6630502 L9.86667244,15.1956602 C10.8631849,16.1449741 9.24161985,17.6286919 8.23439224,16.7125708 C7.55219198,16.0686306 6.55210783,15.1392325 5.50916293,14.1700029 L2.78393361,16.7092515 C1.776706,17.6220533 0.155140987,16.1250584 1.1623686,15.1923409 C1.85528404,14.5484008 2.84465301,13.6190026 3.88759791,12.6597309 L4.62337411,11.9759594 C3.74472874,11.8896581 2.37675649,11.673905 1.38738753,11.0830733 C0.22300384,10.3860246 -0.287753423,9.97775329 0.162284445,9.12469854 C0.4265924,8.64008377 1.15165341,8.23181243 2.11244854,8.93549962 C2.11244854,8.93549962 3.40898621,9.89477131 5.50201947,9.89477131 C7.59505273,9.89477131 8.89159039,8.93549962 8.89159039,8.93549962 C9.85238553,8.23513171 10.5738748,8.64008377 10.8417545,9.12469854 C11.2846489,9.97775329 10.7738916,10.3860246 9.60950795,11.0863925 Z M0.86591508,4.30510513 C0.86591508,1.92518194 2.94823315,0 5.49844774,0 C8.04866232,0 10.1309804,1.92518194 10.1309804,4.30510513 C10.1309804,6.67507048 8.04866232,8.60025242 5.49844774,8.60025242 C2.94823315,8.60025242 0.86591508,6.67507048 0.86591508,4.30510513 Z M3.22325629,4.30510513 C3.22325629,5.47017213 4.24477082,6.41948598 5.49844774,6.41948598 C6.75212466,6.41948598 7.77363918,5.47017213 7.77363918,4.30510513 C7.77363918,3.13008029 6.75212466,2.18076644 5.49844774,2.18076644 C4.24477082,2.18076644 3.22325629,3.13008029 3.22325629,4.30510513 Z" id="Shape"></path>
        </g>
    </g>
</svg>