<?xml version="1.0" encoding="UTF-8"?>
<svg width="89px" height="18px" viewBox="0 0 89 18" version="1.1" xmlns="http://www.w3.org/2000/svg" xmlns:xlink="http://www.w3.org/1999/xlink">
    <!-- Generator: Sketch 46.2 (44496) - http://www.bohemiancoding.com/sketch -->
    <title>ps_logo</title>
    <desc>Created with Sketch.</desc>
    <defs></defs>
    <g id="Symbols" stroke="none" stroke-width="1" fill="none" fill-rule="evenodd">
        <g id="ps_logo" fill-rule="nonzero" fill="#FFFFFF">
            <path d="M21.1237055,4.00122218 L18.7341755,4.00122218 C18.5433938,3.99000264 18.3563531,4.05641001 18.2173292,4.18472449 C18.0783053,4.31303897 17.9996568,4.49185404 18.0000011,4.67884099 L18.0000011,12.3223812 C18.0000011,12.6966197 18.3100965,13 18.6926185,13 C19.0751405,13 19.3852359,12.6966197 19.3852359,12.3223812 L19.3852359,9.61190594 L21.2275981,9.61190594 C21.9845122,9.60146951 22.7051578,9.29291256 23.226568,8.75601219 C23.7479782,8.21911182 24.0261103,7.49921913 23.9980676,6.75913075 C23.9907555,6.02048823 23.6838051,5.31494443 23.1447499,4.79772873 C22.6056946,4.28051304 21.8786966,3.99399847 21.1237055,4.00122218 Z M22.6543899,6.79301169 C22.6588191,7.57701943 22.0282696,8.22386086 21.2275981,8.25666832 L19.3575312,8.25666832 L19.3575312,5.33613124 L21.2275981,5.33613124 C21.6208795,5.3234821 22.0011012,5.47506703 22.273333,5.75303979 C22.5455649,6.03101255 22.6841144,6.40913879 22.6543899,6.79301169 Z" id="Shape"></path>
            <path d="M29.4029851,11.636159 L26.2437811,11.636159 L26.2437811,4.67516879 C26.2437811,4.30228336 25.9653512,4 25.6218905,4 C25.2784299,4 25,4.30228336 25,4.67516879 L25,12.1020255 C25,12.675919 25.2736318,13 25.7400498,13 L29.3781095,13 C29.7215701,13 30,12.6977166 30,12.3248312 C30,11.9519458 29.7215701,11.6496624 29.3781095,11.6496624 L29.4029851,11.636159 Z" id="Shape"></path>
            <path d="M45.2794118,10.8328214 C45.1140624,10.8318842 44.9556998,10.8999955 44.8419118,11.020989 C44.3270218,11.4686226 43.6687539,11.7129622 42.9889706,11.7087739 C41.2518382,11.7087739 40.3446691,10.0931282 40.3446691,8.46450534 C40.3446691,6.83588251 41.1681985,5.33703043 42.9761029,5.33703043 C43.6581626,5.32596043 44.3226424,5.55545718 44.8547794,5.98588415 C44.9932043,6.11068104 45.1710138,6.18194987 45.3566176,6.1870288 C45.7119479,6.1870288 46,5.8965271 46,5.53817508 C45.9970618,5.31423035 45.8927939,5.1039212 45.7169118,4.96718382 C44.9620838,4.32980234 44.0055253,3.98674917 43.0211397,4.00039178 C40.3832721,4.00039178 39,6.29733393 39,8.54236778 C39,10.6900736 40.2352941,12.9999928 42.9503676,12.9999928 C43.9416893,13.0018138 44.9031559,12.6579687 45.671875,12.0267122 C45.8322602,11.8766527 45.9192816,11.6631789 45.9099265,11.4427439 C45.9119467,11.2757967 45.845291,11.1154667 45.7258153,10.999893 C45.6063397,10.8843194 45.4447234,10.8238326 45.2794118,10.8328214 Z" id="Shape"></path>
            <path d="M52.230875,11.6701822 L48.3914721,11.6701822 L48.3914721,9.03090081 L51.562847,9.03090081 C51.7554606,9.05300586 51.9479429,8.98866424 52.0851013,8.85632539 C52.2222597,8.72398653 52.2889445,8.53826772 52.2660344,8.35242232 C52.2835404,8.1678161 52.2150987,7.9852529 52.0792434,7.85417133 C51.9433881,7.72308975 51.7541763,7.65705294 51.562847,7.67394383 L48.3914721,7.67394383 L48.3914721,5.36033216 L52.1394607,5.36033216 C52.3320742,5.38243722 52.5245565,5.31809559 52.6617149,5.18575674 C52.7988733,5.05341788 52.8655581,4.86769907 52.842648,4.68185367 C52.8627921,4.49663113 52.7952069,4.31253174 52.6587198,4.18084052 C52.5222326,4.04914929 52.3314287,3.98393891 52.1394607,4.00337518 L47.7515716,4.00337518 C47.5408826,3.98935599 47.3348193,4.0674453 47.1903328,4.21606103 C47.0458464,4.36467675 46.978238,4.56808039 47.006193,4.77005588 L47.006193,12.2333193 C47.006193,12.7286086 47.1257348,13 47.7515716,13 L52.230875,13 C52.7090424,13 52.9973492,12.7557477 52.9973492,12.3215215 C53.0184449,12.1654715 52.9270305,11.6701822 52.230875,11.6701822 Z" id="Shape"></path>
            <path d="M57.9462622,8.1602947 C57.7552168,8.07539073 57.5709945,7.99048675 57.3935952,7.89905171 L57.0456197,7.72271268 C56.260969,7.33084819 55.5172566,6.965108 55.5172566,6.48180846 C55.5464946,5.84221424 56.097048,5.33825833 56.7658746,5.33887035 L56.7658746,5.33887035 C57.4047004,5.34150937 58.0242881,5.54839569 58.5262214,5.92666709 L58.5876288,5.96585354 C58.7363001,6.08006466 58.9164709,6.15041053 59.1061805,6.16831686 C59.4830071,6.16831686 59.7884855,5.87591068 59.7884855,5.51520937 C59.7619181,5.23235617 59.6041376,4.97584703 59.3586334,4.81638436 C58.6691881,4.31578577 57.8353266,4.03072201 56.9705661,4 C55.2648038,4 54.0775932,5.03844091 54.0775932,6.52752598 C54.0775932,7.83374096 55.4422031,8.48684844 56.6567058,9.07464518 C56.8477512,9.16608023 57.0456197,9.25098421 57.2434881,9.33588818 C58.0759001,9.68203515 58.6080979,9.93021599 58.6080979,10.6421032 C58.6080979,11.3539903 58.062254,11.6674819 56.6567058,11.6674819 C56.1544338,11.6600144 55.6628953,11.5271925 55.2306885,11.2821485 C55.0695555,11.1765381 54.8800546,11.1175858 54.6848446,11.1123405 C54.5040387,11.0854204 54.3203669,11.1398219 54.1870425,11.2597838 C54.0537181,11.3797457 53.9856429,11.55186 54.0025397,11.7262616 C54.0083262,12.011727 54.1719732,12.2728006 54.4323918,12.4120244 C55.076872,12.8027912 55.8256146,13.0069152 56.5884754,12.9998212 C58.8059664,12.9998212 60,12.1377193 60,10.5767924 C60,9.01586551 58.9151352,8.59787672 57.9462622,8.1602947 Z" id="Shape"></path>
            <path d="M67.306572,4.00461452 L61.6719125,4.00461452 C61.4902163,3.99019288 61.3113775,4.05684396 61.1825027,4.1870117 C61.053628,4.31717943 60.987639,4.4978125 61.0019173,4.6813317 C60.987639,4.8648509 61.053628,5.04548396 61.1825027,5.1756517 C61.3113775,5.30581944 61.4902163,5.37247052 61.6719125,5.35804887 L63.8225971,5.35804887 L63.8225971,12.2673312 C63.8076054,12.4559881 63.8715185,12.642365 63.9988284,12.7812392 C64.1261383,12.9201133 64.3052096,12.9987925 64.4925922,12.9981858 C64.6840899,13.0128144 64.8717315,12.9383928 65.0022081,12.7960643 C65.1326847,12.6537357 65.1917367,12.4590552 65.1625874,12.2673312 L65.1625874,5.33774736 L67.3266718,5.33774736 C67.5095785,5.35713317 67.691376,5.29209208 67.8214206,5.16074272 C67.9514652,5.02939336 68.0158603,4.84577189 67.996667,4.66103018 C68.0079787,4.47636941 67.9373903,4.29619326 67.8040395,4.1693505 C67.6706887,4.04250773 67.4883916,3.98214019 67.306572,4.00461452 Z" id="Shape"></path>
            <path d="M73.8817355,11.9982436 L71.2671793,4.67199191 C71.1550787,4.27381747 70.8021792,4 70.4011075,4 C70.0000358,4 69.6471364,4.27381747 69.5350358,4.67199191 L67.0642802,12.0117607 C67.0292882,12.1092984 67.0094338,12.2119441 67.0054526,12.3158948 C66.9820121,12.4907335 67.0348897,12.6673053 67.1497838,12.7978536 C67.2646779,12.9284018 67.4297172,12.9994376 67.6002642,12.9917483 C67.9465976,12.986137 68.2452241,12.7385602 68.3258035,12.3902387 L68.9794426,10.5384001 L71.9338911,10.5384001 L72.7313308,12.5659606 C72.8339027,12.8427487 73.0989296,13.0181305 73.3849698,12.9985068 C73.5501146,13.0062807 73.7108015,12.9418473 73.8276974,12.8209786 C73.9445934,12.7001098 74.0069089,12.5339619 73.9993905,12.3632045 C73.9863083,12.2341513 73.9461566,12.1096023 73.8817355,11.9982436 Z M71.4828802,9.18669316 L69.3520168,9.18669316 L70.4305213,6.15211103 L71.4828802,9.18669316 Z" id="Shape"></path>
            <path d="M80.3348198,9.29617326 C81.561364,8.75549928 82.2285878,7.43902184 81.9286275,6.151483 C81.6286673,4.86394416 80.4450165,3.96372816 79.1012224,4.00112297 L76.9165835,4.00112297 C76.2825558,4.00112297 76,4.31936768 76,5.02356874 L76,12.2348585 C76,12.9119749 76.4755208,13 76.6891605,13 C77.1095485,13 77.3783211,12.7156111 77.3783211,12.2348585 L77.3783211,9.56024866 L78.9151491,9.56024866 L80.7138581,12.6140436 C80.8336614,12.8412991 81.0736382,12.9827688 81.3341025,12.9796865 C81.5040033,12.9876575 81.6693539,12.9243505 81.7889698,12.8055337 C81.9085856,12.6867169 81.9712077,12.5235738 81.9612386,12.3567394 C81.9571413,12.1747859 81.9099496,11.9962731 81.8234065,11.8353598 L80.3348198,9.29617326 Z M80.6242672,6.7840714 C80.639185,7.16815031 80.4952168,7.54180362 80.2251678,7.81988937 C79.9551187,8.09797513 79.5819934,8.25680417 79.1908133,8.26018516 L77.343863,8.26018516 L77.343863,5.33504229 L79.1908133,5.33504229 C79.579457,5.33304738 79.9522675,5.48618891 80.2238164,5.759375 C80.4953654,6.03256108 80.6423751,6.40237367 80.6311588,6.7840714 L80.6242672,6.7840714 Z" id="Shape"></path>
            <path d="M88.3132719,4.00381833 L82.6719125,4.00381833 C82.4902163,3.98939542 82.3113775,4.0560524 82.1825027,4.18623165 C82.053628,4.31641091 81.987639,4.49705997 82.0019173,4.68059541 C81.987639,4.86413085 82.053628,5.0447799 82.1825027,5.17495916 C82.3113775,5.30513842 82.4902163,5.3717954 82.6719125,5.35737248 L84.8225971,5.35737248 L84.8225971,12.2672664 C84.8076054,12.45594 84.8715185,12.6423334 84.9988284,12.7812198 C85.1261383,12.9201063 85.3052096,12.9987924 85.4925922,12.9981856 C85.6840899,13.0128155 85.8717315,12.9383873 86.0022081,12.7960462 C86.1326847,12.6537051 86.1917367,12.4590073 86.1625874,12.2672664 L86.1625874,5.33706917 L88.3266718,5.33706917 C88.5095785,5.3564567 88.691376,5.29140984 88.8214206,5.16004886 C88.9514652,5.02868787 89.0158603,4.84505015 88.996667,4.6602921 C89.0076643,4.47693775 88.9379483,4.29803484 88.8061719,4.17144949 C88.6743954,4.04486415 88.4940076,3.98351577 88.3132719,4.00381833 Z" id="Shape"></path>
            <path d="M37.8948083,11.9982436 L35.2802521,4.67199191 C35.1681515,4.27381747 34.815252,4 34.4141803,4 C34.0131086,4 33.6602092,4.27381747 33.5481086,4.67199191 L31.0642802,12.0117607 C31.0291816,12.1092671 31.0093238,12.2119306 31.0054526,12.3158948 C30.9820121,12.4907335 31.0348897,12.6673053 31.1497838,12.7978536 C31.2646779,12.9284018 31.4297172,12.9994376 31.6002642,12.9917483 C31.947435,12.9885537 32.2473234,12.7399308 32.3258035,12.3902387 L32.9794426,10.5384001 L35.9338911,10.5384001 L36.7313308,12.5659606 C36.8339027,12.8427487 37.0989296,13.0181305 37.3849698,12.9985068 C37.5501146,13.0062807 37.7108015,12.9418473 37.8276974,12.8209786 C37.9445934,12.7001098 38.0069089,12.5339619 37.9993905,12.3632045 C37.9903279,12.2351882 37.9546553,12.1107013 37.8948083,11.9982436 Z M35.4959529,9.17993462 L33.371626,9.17993462 L34.4501305,6.13183543 L35.4959529,9.17993462 Z" id="Shape"></path>
            <path d="M11.8695652,2.12896552 C10.5895091,0.785882772 8.83657506,0.0195030441 7,0 L6.93913043,0 C3.13718103,0.0165974666 0.0497728123,3.13722514 6.95450777e-14,7.0137931 C6.95450777e-14,7.17517241 6.95450777e-14,13.2206897 6.95450777e-14,15.8462069 L6.95450777e-14,16.8331034 C-0.00372415663,17.0406609 0.080587907,17.2397572 0.231304348,17.3793103 C0.508081533,17.6457275 0.940614119,17.6457275 1.2173913,17.3793103 L4.74782609,13.8475862 C5.44827122,14.0147886 6.1606722,14.1247921 6.87826087,14.1765517 L6.93913043,14.1765517 C10.7375677,14.1136199 13.8037826,10.9924771 13.8721739,7.11931034 C13.8854377,5.24981356 13.1642598,3.4526943 11.8695652,2.12896552 L11.8695652,2.12896552 Z M6.94521739,13.0344828 L6.89043478,13.0344828 C6.18471171,12.9773077 5.48454614,12.8631569 4.79652174,12.6931034 C4.56148518,12.6409716 4.31652311,12.7133404 4.14521739,12.8855172 L1.06521739,15.9889655 C1.06521739,12.3268966 1.06521739,7.15034483 1.06521739,7.02 C1.11159394,3.74089584 3.72309723,1.10277027 6.93913043,1.0862069 L6.97565217,1.0862069 C8.5347343,1.10064079 10.0232164,1.75113157 11.1086957,2.89241379 C12.1965504,4.01523463 12.7992152,5.53482433 12.7826087,7.11310345 C12.6988265,10.3593528 10.1291318,12.9660202 6.94521739,13.0344828 Z" id="Shape"></path>
            <path d="M8.41826087,4.34482759 C8.1756342,4.26900046 7.9141229,4.37718444 7.79188466,4.60395166 C7.66964641,4.83071888 7.72023007,5.11383202 7.91304348,5.28206897 C8.71789978,5.72659339 9.13072629,6.66600111 8.9204169,7.57439844 C8.71010752,8.48279576 7.92885334,9.13475164 7.01401149,9.16529197 C6.09916963,9.1958323 5.27777045,8.59737809 5.00964478,7.70495245 C4.74151912,6.81252681 5.09320597,5.8475972 5.86782609,5.35034483 C6.02983827,5.24612183 6.12501584,5.06168024 6.11750632,4.86649741 C6.10999679,4.67131459 6.00094106,4.49504344 5.83141935,4.40408361 C5.66189765,4.31312378 5.45766435,4.32129424 5.29565217,4.42551724 C4.10517612,5.17592144 3.55587203,6.64697942 3.95541109,8.01473568 C4.35495014,9.38249194 5.60411346,10.307287 7.00323116,10.2711332 C8.40234886,10.2349793 9.60397336,9.24685475 9.93506178,7.86021874 C10.2661502,6.47358272 9.64448225,5.0327832 8.41826087,4.34482759 L8.41826087,4.34482759 Z" id="Shape"></path>
            <path d="M6.87217391,3.55655172 C6.73011012,3.55655172 6.5938649,3.61409836 6.49341063,3.71653202 C6.39295636,3.81896568 6.33652174,3.95789554 6.33652174,4.10275862 L6.33652174,6.42413793 C6.33652174,6.72579967 6.57634139,6.97034483 6.87217391,6.97034483 C7.16800644,6.97034483 7.40782609,6.72579967 7.40782609,6.42413793 L7.40782609,4.10275862 C7.40782609,3.80109688 7.16800644,3.55655172 6.87217391,3.55655172 L6.87217391,3.55655172 Z" id="Shape"></path>
        </g>
    </g>
</svg>