<svg xmlns="http://www.w3.org/2000/svg" xmlns:xlink="http://www.w3.org/1999/xlink" width="9" height="9" viewBox="0 0 9 9"><defs><path id="i7u9a" d="M7 3.5c0 .61-.17 1.19-.44 1.69a1 1 0 0 1 .13.09l1.03 1a1.02 1.02 0 1 1-1.44 1.44l-1-1.03a1 1 0 0 1-.09-.13A3.5 3.5 0 1 1 7 3.5zM3.5.99A2.49 2.49 0 0 0 1 3.49c0 1.39 1.11 2.5 2.5 2.5.62 0 1.19-.22 1.63-.59a1 1 0 0 1 .25-.28 1 1 0 0 1 .06-.03l.03-.03C5.8 4.64 6 4.09 6 3.5 6 2.11 4.89 1 3.5 1z"/></defs><g><g><use fill="#0174d8" xlink:href="#i7u9a"/></g></g></svg>