<svg xmlns="http://www.w3.org/2000/svg" xmlns:xlink="http://www.w3.org/1999/xlink" width="19" height="20" viewBox="0 0 19 20"><defs><path id="68x9a" d="M1199.8 410.72l-1.52-.06-.33 9.03 1.52.05z"/><path id="68x9b" d="M1195.33 419.72v-9.03h1.53v9.03z"/><path id="68x9c" d="M1194.23 419.69l-.33-9.03-1.52.06.33 9.02z"/><path id="68x9d" d="M1200.83 421.95h-9.51l-1.19-13.5h11.89zM1187 406.92v1.53h1.59l1.26 14.33c.04.39.36.7.76.7h10.9c.4 0 .73-.31.77-.7l1.26-14.33h1.61v-1.53z"/><path id="68x9e" d="M1198.58 404h-4.98c-.7 0-1.27.57-1.27 1.27v2.42h1.53v-2.16h4.47v2.16h1.53v-2.42c0-.7-.57-1.27-1.28-1.27z"/></defs><g><g transform="translate(-1187 -404)"><g><use fill="#fff" xlink:href="#68x9a"/></g><g><use fill="#fff" xlink:href="#68x9b"/></g><g><use fill="#fff" xlink:href="#68x9c"/></g><g><use fill="#fff" xlink:href="#68x9d"/></g><g><use fill="#fff" xlink:href="#68x9e"/></g></g></g></svg>