<?xml version="1.0" encoding="UTF-8"?>
<svg width="17px" height="10px" viewBox="0 0 17 10" version="1.1" xmlns="http://www.w3.org/2000/svg" xmlns:xlink="http://www.w3.org/1999/xlink">
    <!-- Generator: Sketch 46.2 (44496) - http://www.bohemiancoding.com/sketch -->
    <title>vk</title>
    <desc>Created with Sketch.</desc>
    <defs></defs>
    <g id="Symbols" stroke="none" stroke-width="1" fill="none" fill-rule="evenodd">
        <g id="vk" fill-rule="nonzero" fill="#999999">
            <path d="M16.6125599,0.678125 C16.7293275,0.2875 16.6125599,0 16.050813,0 L14.1919988,0 C13.7186166,0 13.5008608,0.246875 13.3840932,0.521875 C13.3840932,0.521875 12.4373287,2.80625 11.099235,4.2875 C10.6668792,4.715625 10.4680587,4.853125 10.2313676,4.853125 C10.1146,4.853125 9.93471475,4.715625 9.93471475,4.325 L9.93471475,0.678125 C9.93471475,0.209375 9.80216773,0 9.41083843,0 L6.48849223,0 C6.19183937,0 6.01511001,0.21875 6.01511001,0.421875 C6.01511001,0.865625 6.68415688,0.96875 6.75358627,2.21875 L6.75358627,4.93125 C6.75358627,5.525 6.6462863,5.634375 6.40959519,5.634375 C5.7784189,5.634375 4.24466053,3.340625 3.33576667,0.715625 C3.15272555,0.20625 2.97284031,0 2.49630221,0 L0.637488049,0 C0.107299969,0 0,0.246875 0,0.521875 C0,1.009375 0.631176287,3.43125 2.93812561,6.63125 C4.47503987,8.815625 6.63997454,10 8.60924455,10 C9.79270009,10 9.93787063,9.7375 9.93787063,9.284375 C9.93787063,7.196875 9.83057066,7 10.4238764,7 C10.6984381,7 11.1718203,7.1375 12.2763788,8.190625 C13.5387313,9.440625 13.7470195,10 14.453937,10 L16.3127511,10 C16.8429392,10 17.1111891,9.7375 16.9565509,9.21875 C16.6030922,8.128125 14.21409,5.884375 14.10679,5.734375 C13.8322283,5.384375 13.9111254,5.228125 14.10679,4.915625 C14.1099459,4.9125 16.3790246,1.75 16.6125599,0.678125 Z" id="Shape"></path>
        </g>
    </g>
</svg>