<?xml version="1.0" encoding="UTF-8"?>
<svg width="986px" height="728px" viewBox="0 0 986 728" version="1.1" xmlns="http://www.w3.org/2000/svg" xmlns:xlink="http://www.w3.org/1999/xlink">
    <!-- Generator: Sketch 46.2 (44496) - http://www.bohemiancoding.com/sketch -->
    <title>wallet</title>
    <desc>Created with Sketch.</desc>
    <defs></defs>
    <g id="Symbols" stroke="none" stroke-width="1" fill="none" fill-rule="evenodd">
        <g id="wallet" fill-rule="nonzero" fill="#0275D8">
            <path d="M60,727.55 L859.8,727.55 C892.901,727.55 919.8,700.65 919.8,667.55 L919.8,532.15 L632.7,532.15 C611.2,532.15 590.2,527.951 570.5,519.55 C551.5,511.55 534.4,499.95 519.8,485.351 C505.2,470.751 493.6,453.65 485.6,434.65 C477.3,414.95 473,393.95 473,372.45 L473,355.55 C473,334.05 477.2,313.05 485.6,293.35 C493.6,274.35 505.201,257.25 519.8,242.65 C534.401,228.05 551.5,216.45 570.5,208.45 C590.2,200.15 611.2,195.85 632.7,195.85 L919.8,195.85 L919.8,60.45 C919.8,27.35 892.901,0.45 859.8,0.45 L60,0.45 C26.9,0.45 0,27.35 0,60.45 L0,667.55 C0,700.649 26.9,727.55 60,727.55 Z" id="Shape"></path>
            <path d="M986,300.85 C986,275.95 965.9,255.85 941,255.85 L919.8,255.85 L632.7,255.85 C577.599,255.85 533,300.45 533,355.55 L533,372.45 C533,427.55 577.6,472.149 632.7,472.149 L919.8,472.149 L941,472.149 C965.9,472.149 986,452.049 986,427.149 L986,300.85 Z M649,416.95 C619.7,416.95 596,393.251 596,363.95 C596,334.65 619.7,310.95 649,310.95 C678.3,310.95 702,334.65 702,363.95 C702,393.251 678.3,416.95 649,416.95 Z" id="Shape"></path>
        </g>
    </g>
</svg>