<?xml version="1.0" encoding="UTF-8"?>
<svg width="17px" height="12px" viewBox="0 0 17 12" version="1.1" xmlns="http://www.w3.org/2000/svg" xmlns:xlink="http://www.w3.org/1999/xlink">
    <!-- Generator: Sketch 46.2 (44496) - http://www.bohemiancoding.com/sketch -->
    <title>you</title>
    <desc>Created with Sketch.</desc>
    <defs></defs>
    <g id="Symbols" stroke="none" stroke-width="1" fill="none" fill-rule="evenodd">
        <g id="you" fill-rule="nonzero" fill="#999999">
            <path d="M16.6447685,1.87759375 C16.4492542,1.13853125 15.8732014,0.55646875 15.1417894,0.3589375 C13.8160525,0 8.5,0 8.5,0 C8.5,0 3.18397866,0 1.85821062,0.3589375 C1.12679855,0.5565 0.550745788,1.13853125 0.3552315,1.87759375 C0,3.2171875 0,6.012125 0,6.012125 C0,6.012125 0,8.8070625 0.3552315,10.1466562 C0.550745788,10.8857187 1.12679855,11.4435312 1.85821062,11.6410625 C3.18397866,12 8.5,12 8.5,12 C8.5,12 13.8160213,12 15.1417894,11.6410625 C15.8732014,11.4435312 16.4492542,10.8857187 16.6447685,10.1466562 C17,8.8070625 17,6.012125 17,6.012125 C17,6.012125 17,3.2171875 16.6447685,1.87759375 Z M6.76135161,8.54971875 L6.76135161,3.47453125 L11.2045157,6.0121875 L6.76135161,8.54971875 Z" id="Shape"></path>
        </g>
    </g>
</svg>